<svg width="24" height="24" viewBox="0 0 24 24" fill="none" xmlns="http://www.w3.org/2000/svg">
<path fill-rule="evenodd" clip-rule="evenodd" d="M21 0H3C2.20435 0 1.44129 0.316071 0.87868 0.87868C0.316071 1.44129 0 2.20435 0 3L0 21C0 21.7956 0.316071 22.5587 0.87868 23.1213C1.44129 23.6839 2.20435 24 3 24H21C21.7956 24 22.5587 23.6839 23.1213 23.1213C23.6839 22.5587 24 21.7956 24 21V3C24 2.20435 23.6839 1.44129 23.1213 0.87868C22.5587 0.316071 21.7956 0 21 0V0ZM1.5 5.7855C1.5 5.076 2.172 4.5 3 4.5H21C21.828 4.5 22.5 5.076 22.5 5.7855V21.2145C22.5 21.924 21.828 22.5 21 22.5H3C2.172 22.5 1.5 21.924 1.5 21.2145V5.7855Z" fill="black"/>
<path fill-rule="evenodd" clip-rule="evenodd" d="M10.1818 11C10.5917 11 10.9848 10.842 11.2746 10.5607C11.5644 10.2794 11.7273 9.89782 11.7273 9.5C11.7273 9.10218 11.5644 8.72064 11.2746 8.43934C10.9848 8.15804 10.5917 8 10.1818 8C9.77194 8 9.37885 8.15804 9.08902 8.43934C8.79919 8.72064 8.63636 9.10218 8.63636 9.5C8.63636 9.89782 8.79919 10.2794 9.08902 10.5607C9.37885 10.842 9.77194 11 10.1818 11ZM14.8182 11C15.2281 11 15.6212 10.842 15.911 10.5607C16.2008 10.2794 16.3636 9.89782 16.3636 9.5C16.3636 9.10218 16.2008 8.72064 15.911 8.43934C15.6212 8.15804 15.2281 8 14.8182 8C14.4083 8 14.0152 8.15804 13.7254 8.43934C13.4356 8.72064 13.2727 9.10218 13.2727 9.5C13.2727 9.89782 13.4356 10.2794 13.7254 10.5607C14.0152 10.842 14.4083 11 14.8182 11ZM19.4545 11C19.8644 11 20.2575 10.842 20.5473 10.5607C20.8372 10.2794 21 9.89782 21 9.5C21 9.10218 20.8372 8.72064 20.5473 8.43934C20.2575 8.15804 19.8644 8 19.4545 8C19.0447 8 18.6516 8.15804 18.3617 8.43934C18.0719 8.72064 17.9091 9.10218 17.9091 9.5C17.9091 9.89782 18.0719 10.2794 18.3617 10.5607C18.6516 10.842 19.0447 11 19.4545 11ZM5.54545 15.5C5.95533 15.5 6.34843 15.342 6.63826 15.0607C6.92808 14.7794 7.09091 14.3978 7.09091 14C7.09091 13.6022 6.92808 13.2206 6.63826 12.9393C6.34843 12.658 5.95533 12.5 5.54545 12.5C5.13557 12.5 4.74248 12.658 4.45265 12.9393C4.16282 13.2206 4 13.6022 4 14C4 14.3978 4.16282 14.7794 4.45265 15.0607C4.74248 15.342 5.13557 15.5 5.54545 15.5ZM10.1818 15.5C10.5917 15.5 10.9848 15.342 11.2746 15.0607C11.5644 14.7794 11.7273 14.3978 11.7273 14C11.7273 13.6022 11.5644 13.2206 11.2746 12.9393C10.9848 12.658 10.5917 12.5 10.1818 12.5C9.77194 12.5 9.37885 12.658 9.08902 12.9393C8.79919 13.2206 8.63636 13.6022 8.63636 14C8.63636 14.3978 8.79919 14.7794 9.08902 15.0607C9.37885 15.342 9.77194 15.5 10.1818 15.5ZM14.8182 15.5C15.2281 15.5 15.6212 15.342 15.911 15.0607C16.2008 14.7794 16.3636 14.3978 16.3636 14C16.3636 13.6022 16.2008 13.2206 15.911 12.9393C15.6212 12.658 15.2281 12.5 14.8182 12.5C14.4083 12.5 14.0152 12.658 13.7254 12.9393C13.4356 13.2206 13.2727 13.6022 13.2727 14C13.2727 14.3978 13.4356 14.7794 13.7254 15.0607C14.0152 15.342 14.4083 15.5 14.8182 15.5ZM19.4545 15.5C19.8644 15.5 20.2575 15.342 20.5473 15.0607C20.8372 14.7794 21 14.3978 21 14C21 13.6022 20.8372 13.2206 20.5473 12.9393C20.2575 12.658 19.8644 12.5 19.4545 12.5C19.0447 12.5 18.6516 12.658 18.3617 12.9393C18.0719 13.2206 17.9091 13.6022 17.9091 14C17.9091 14.3978 18.0719 14.7794 18.3617 15.0607C18.6516 15.342 19.0447 15.5 19.4545 15.5ZM5.54545 20C5.95533 20 6.34843 19.842 6.63826 19.5607C6.92808 19.2794 7.09091 18.8978 7.09091 18.5C7.09091 18.1022 6.92808 17.7206 6.63826 17.4393C6.34843 17.158 5.95533 17 5.54545 17C5.13557 17 4.74248 17.158 4.45265 17.4393C4.16282 17.7206 4 18.1022 4 18.5C4 18.8978 4.16282 19.2794 4.45265 19.5607C4.74248 19.842 5.13557 20 5.54545 20ZM10.1818 20C10.5917 20 10.9848 19.842 11.2746 19.5607C11.5644 19.2794 11.7273 18.8978 11.7273 18.5C11.7273 18.1022 11.5644 17.7206 11.2746 17.4393C10.9848 17.158 10.5917 17 10.1818 17C9.77194 17 9.37885 17.158 9.08902 17.4393C8.79919 17.7206 8.63636 18.1022 8.63636 18.5C8.63636 18.8978 8.79919 19.2794 9.08902 19.5607C9.37885 19.842 9.77194 20 10.1818 20ZM14.8182 20C15.2281 20 15.6212 19.842 15.911 19.5607C16.2008 19.2794 16.3636 18.8978 16.3636 18.5C16.3636 18.1022 16.2008 17.7206 15.911 17.4393C15.6212 17.158 15.2281 17 14.8182 17C14.4083 17 14.0152 17.158 13.7254 17.4393C13.4356 17.7206 13.2727 18.1022 13.2727 18.5C13.2727 18.8978 13.4356 19.2794 13.7254 19.5607C14.0152 19.842 14.4083 20 14.8182 20Z" fill="black"/>
</svg>
