<svg width="16" height="16" viewBox="0 0 16 16" fill="none" xmlns="http://www.w3.org/2000/svg">
<path d="M6.9314 10.9991L2.24372 5.62528C1.6905 4.99301 2.14011 4 2.97971 4H12.3551C12.543 3.99984 12.7269 4.054 12.8849 4.156C13.0429 4.258 13.1683 4.40351 13.2459 4.57511C13.3236 4.74672 13.3503 4.93713 13.3228 5.12356C13.2954 5.30998 13.2149 5.48452 13.0911 5.62626L8.40339 10.9981C8.31165 11.1034 8.19851 11.1878 8.07157 11.2456C7.94462 11.3034 7.80682 11.3333 7.6674 11.3333C7.52798 11.3333 7.39017 11.3034 7.26323 11.2456C7.13628 11.1878 7.02314 11.1034 6.9314 10.9981V10.9991Z" fill="#8D8D8D"/>
</svg>
