<svg width="183" height="152" viewBox="0 0 183 152" fill="none" xmlns="http://www.w3.org/2000/svg">
<path opacity="0.3" d="M17.38 95.9802C13.97 109.59 23.49 135.07 49.21 145.2C85.9 159.66 121.74 147.42 140.68 131.93C185.99 94.8802 154.68 19.3602 121.51 47.6402C94.1 71.0102 91.93 102.22 66.49 96.8802C41.13 91.5502 22.67 74.8602 17.38 95.9802Z" fill="#93D1F2"/>
<path opacity="0.5" d="M40.07 104.95C37.72 114.34 44.28 131.91 62.02 138.89C87.32 148.86 112.04 140.42 125.1 129.74C156.35 104.19 134.75 52.1102 111.88 71.6102C92.98 87.7202 91.49 109.24 73.94 105.56C56.45 101.89 43.72 90.3801 40.07 104.95Z" fill="#73B4E1"/>
<path d="M152.4 21.82C158.425 21.82 163.31 16.9354 163.31 10.91C163.31 4.88457 158.425 0 152.4 0C146.375 0 141.49 4.88457 141.49 10.91C141.49 16.9354 146.375 21.82 152.4 21.82Z" fill="#5CB157"/>
<path d="M4.4 73.1897C6.83005 73.1897 8.8 71.2197 8.8 68.7896C8.8 66.3596 6.83005 64.3896 4.4 64.3896C1.96995 64.3896 0 66.3596 0 68.7896C0 71.2197 1.96995 73.1897 4.4 73.1897Z" fill="#5CB157"/>
<path d="M177.96 48.9104C180.39 48.9104 182.36 46.9404 182.36 44.5103C182.36 42.0803 180.39 40.1104 177.96 40.1104C175.53 40.1104 173.56 42.0803 173.56 44.5103C173.56 46.9404 175.53 48.9104 177.96 48.9104Z" fill="#5CB157"/>
<path d="M120.12 113.99H59.67C55.87 113.99 52.79 110.91 52.79 107.11V68.7305C52.79 66.6605 54.47 64.9805 56.54 64.9805H122.59C125.02 64.9805 126.99 66.9505 126.99 69.3805V107.12C127 110.91 123.92 113.99 120.12 113.99Z" fill="white"/>
<path d="M52.8 68.3605C52.8 66.4905 54.32 64.9805 56.18 64.9805H123.61C125.48 64.9805 126.99 66.5005 126.99 68.3605" stroke="#364D98" stroke-width="3.7766" stroke-miterlimit="10" stroke-linecap="round"/>
<path d="M127 68.3604V107.07C127 110.89 123.9 113.99 120.08 113.99H59.71C55.89 113.99 52.79 110.89 52.79 107.07V70.3604" stroke="#364D98" stroke-width="3.7766" stroke-miterlimit="10" stroke-linecap="round"/>
<path d="M115.3 98.6497L69 109.98C66.92 110.49 64.82 109.22 64.31 107.13L56.67 75.9197C56.16 73.8397 57.43 71.7397 59.52 71.2297L105.83 59.8997C107.91 59.3897 110.01 60.6597 110.52 62.7497L118.16 93.9597C118.66 96.0397 117.38 98.1397 115.3 98.6497Z" fill="#C2DEF3"/>
<path d="M115.3 98.6497L69 109.98C66.92 110.49 64.82 109.22 64.31 107.13L56.67 75.9197C56.16 73.8397 57.43 71.7397 59.52 71.2297L105.83 59.8997C107.91 59.3897 110.01 60.6597 110.52 62.7497L118.16 93.9597C118.66 96.0397 117.38 98.1397 115.3 98.6497Z" stroke="#364D98" stroke-width="3.7766" stroke-miterlimit="10" stroke-linecap="round"/>
<path d="M112.95 119.69H58.83C55.5 119.69 52.8 116.99 52.8 113.66V71.75H118.99V113.66C118.99 116.99 116.28 119.69 112.95 119.69Z" fill="white"/>
<path d="M118.99 71.7501H56.18C54.31 71.7501 52.8 70.2301 52.8 68.3701" stroke="#364D98" stroke-width="3.7766" stroke-miterlimit="10" stroke-linecap="round"/>
<path d="M118.99 71.75V113.51C118.99 116.93 116.36 119.7 113.1 119.7H58.68C55.43 119.7 52.79 116.93 52.79 113.51V68.79" stroke="#364D98" stroke-width="3.7766" stroke-miterlimit="10" stroke-linecap="round"/>
<path d="M126.68 99.7802C126.68 99.7802 124.94 102.26 122.11 102.26C119.28 102.26 108.77 102.26 108.77 102.26C105.76 102.26 103.31 99.7702 103.31 96.7202C103.31 93.6702 105.77 91.1802 108.77 91.1802C108.77 91.1802 119.39 91.1802 122.11 91.1802C124.83 91.1802 126.68 88.7002 126.68 88.7002V99.7802Z" fill="white"/>
<path d="M126.68 99.7802C126.68 99.7802 124.94 102.26 122.11 102.26C119.28 102.26 108.77 102.26 108.77 102.26C105.76 102.26 103.31 99.7702 103.31 96.7202C103.31 93.6702 105.77 91.1802 108.77 91.1802C108.77 91.1802 119.39 91.1802 122.11 91.1802C124.83 91.1802 126.68 88.7002 126.68 88.7002V99.7802Z" stroke="#364D98" stroke-width="3.7766" stroke-miterlimit="10" stroke-linecap="round"/>
<path d="M109.35 98.8697C110.449 98.8697 111.34 97.9787 111.34 96.8796C111.34 95.7806 110.449 94.8896 109.35 94.8896C108.251 94.8896 107.36 95.7806 107.36 96.8796C107.36 97.9787 108.251 98.8697 109.35 98.8697Z" fill="#364D98"/>
<path d="M111.19 66.5296C110.33 67.0396 109.32 67.3396 108.24 67.3396C105.05 67.3396 102.46 64.7496 102.46 61.5596" stroke="#364D98" stroke-width="3.7766" stroke-miterlimit="10" stroke-linecap="round"/>
<path d="M73.24 83.21V88.68" stroke="#364D98" stroke-width="1.0318" stroke-miterlimit="10" stroke-linecap="round"/>
<path d="M78.56 78.3398V85.9398" stroke="#364D98" stroke-width="1.0318" stroke-miterlimit="10" stroke-linecap="round"/>
<path d="M69.61 80.5V92.62" stroke="#364D98" stroke-width="1.0318" stroke-miterlimit="10" stroke-linecap="round"/>
<path d="M83.55 79.1602V84.6301" stroke="#364D98" stroke-width="1.0318" stroke-miterlimit="10" stroke-linecap="round"/>
<path d="M88.54 78.3398V86.5698" stroke="#364D98" stroke-width="1.0318" stroke-miterlimit="10" stroke-linecap="round"/>
<path d="M97.19 32.0504C102.398 32.0504 106.62 27.8285 106.62 22.6204C106.62 17.4124 102.398 13.1904 97.19 13.1904C91.982 13.1904 87.76 17.4124 87.76 22.6204C87.76 27.8285 91.982 32.0504 97.19 32.0504Z" fill="#C2DEF3"/>
<path d="M87.77 22.0197C88.04 17.6597 91.34 13.9297 95.84 13.2797C101 12.5397 105.78 16.1097 106.52 21.2697C106.93 24.1297 106.01 26.8797 104.23 28.8897" stroke="#364D98" stroke-width="3.7766" stroke-miterlimit="10" stroke-linecap="round"/>
<path d="M85.89 56.4596C93.8484 56.4596 100.3 50.0081 100.3 42.0496C100.3 34.0912 93.8484 27.6396 85.89 27.6396C77.9316 27.6396 71.48 34.0912 71.48 42.0496C71.48 50.0081 77.9316 56.4596 85.89 56.4596Z" fill="#C2DEF3"/>
<path d="M85.89 56.4596C93.8484 56.4596 100.3 50.0081 100.3 42.0496C100.3 34.0912 93.8484 27.6396 85.89 27.6396C77.9316 27.6396 71.48 34.0912 71.48 42.0496C71.48 50.0081 77.9316 56.4596 85.89 56.4596Z" stroke="#364D98" stroke-width="3.7766" stroke-miterlimit="10" stroke-linecap="round"/>
<path d="M82.22 108.31C87.4336 108.31 91.66 104.083 91.66 98.8697C91.66 93.6561 87.4336 89.4297 82.22 89.4297C77.0065 89.4297 72.78 93.6561 72.78 98.8697C72.78 104.083 77.0065 108.31 82.22 108.31Z" fill="#C2DEF3"/>
<path d="M82.22 108.31C87.4336 108.31 91.66 104.083 91.66 98.8697C91.66 93.6561 87.4336 89.4297 82.22 89.4297C77.0065 89.4297 72.78 93.6561 72.78 98.8697C72.78 104.083 77.0065 108.31 82.22 108.31Z" stroke="#364D98" stroke-width="3.7766" stroke-miterlimit="10" stroke-linecap="round"/>
<path d="M130.15 148.21C136.313 148.21 141.31 143.213 141.31 137.05C141.31 130.886 136.313 125.89 130.15 125.89C123.986 125.89 118.99 130.886 118.99 137.05C118.99 143.213 123.986 148.21 130.15 148.21Z" fill="#5CB157"/>
<path d="M125.69 138L130.15 140.78L135.92 133.33" stroke="white" stroke-width="2" stroke-miterlimit="10" stroke-linecap="round"/>
</svg>
