<svg width="183" height="152" viewBox="0 0 183 152" fill="none" xmlns="http://www.w3.org/2000/svg">
<path opacity="0.3" d="M17.38 95.7686C13.97 109.347 23.49 134.769 49.21 144.875C85.9 159.302 121.74 147.09 140.68 131.636C185.99 94.6712 154.68 19.3251 121.51 47.54C94.1 70.8561 91.94 101.994 66.5 96.6666C41.13 91.3489 22.67 74.6973 17.38 95.7686Z" fill="#93D1F2"/>
<path opacity="0.5" d="M40.07 104.718C37.72 114.086 44.28 131.616 62.02 138.58C87.32 148.527 112.04 140.106 125.1 129.451C156.35 103.96 134.75 51.9997 111.88 71.4548C92.98 87.5277 91.49 108.998 73.94 105.327C56.45 101.665 43.72 90.1816 40.07 104.718Z" fill="#73B4E1"/>
<path d="M152.4 21.7698C158.425 21.7698 163.31 16.8964 163.31 10.8849C163.31 4.87333 158.425 0 152.4 0C146.375 0 141.49 4.87333 141.49 10.8849C141.49 16.8964 146.375 21.7698 152.4 21.7698Z" fill="#DB3832"/>
<path d="M4.4 73.0317C6.83005 73.0317 8.8 71.0663 8.8 68.6418C8.8 66.2174 6.83005 64.252 4.4 64.252C1.96995 64.252 0 66.2174 0 68.6418C0 71.0663 1.96995 73.0317 4.4 73.0317Z" fill="#DB3832"/>
<path d="M177.96 48.8071C180.39 48.8071 182.36 46.8417 182.36 44.4172C182.36 41.9928 180.39 40.0273 177.96 40.0273C175.53 40.0273 173.56 41.9928 173.56 44.4172C173.56 46.8417 175.53 48.8071 177.96 48.8071Z" fill="#DB3832"/>
<path d="M120.12 117.798H59.67C55.87 117.798 52.79 114.725 52.79 110.934V72.6525C52.79 70.5873 54.47 68.9111 56.54 68.9111H122.59C125.02 68.9111 126.99 70.8766 126.99 73.301V110.954C127 114.735 123.92 117.798 120.12 117.798Z" fill="white"/>
<path d="M52.8 72.2833C52.8 70.4177 54.32 68.9111 56.18 68.9111H123.61C125.48 68.9111 126.99 70.4276 126.99 72.2833" stroke="#364D98" stroke-width="3.7766" stroke-miterlimit="10" stroke-linecap="round"/>
<path d="M127 72.2832V110.904C127 114.715 123.9 117.808 120.08 117.808H59.71C55.89 117.808 52.79 114.715 52.79 110.904V74.2786" stroke="#364D98" stroke-width="3.7766" stroke-miterlimit="10" stroke-linecap="round"/>
<path d="M115.3 102.494L69 113.798C66.92 114.307 64.82 113.039 64.31 110.954L56.67 79.8162C56.16 77.7409 57.43 75.6458 59.52 75.137L105.83 63.833C107.91 63.3242 110.01 64.5913 110.52 66.6765L118.16 97.8146C118.66 99.8898 117.38 101.985 115.3 102.494Z" fill="#C2DEF3"/>
<path d="M115.3 102.494L69 113.798C66.92 114.307 64.82 113.039 64.31 110.954L56.67 79.8162C56.16 77.7409 57.43 75.6458 59.52 75.137L105.83 63.833C107.91 63.3242 110.01 64.5913 110.52 66.6765L118.16 97.8146C118.66 99.8898 117.38 101.985 115.3 102.494Z" stroke="#364D98" stroke-width="3.7766" stroke-miterlimit="10" stroke-linecap="round"/>
<path d="M112.95 123.495H58.83C55.5 123.495 52.8 120.801 52.8 117.479V75.6553H118.99V117.469C118.99 120.791 116.28 123.495 112.95 123.495Z" fill="white"/>
<path d="M118.99 75.6554H56.18C54.31 75.6554 52.8 74.1389 52.8 72.2832" stroke="#364D98" stroke-width="3.7766" stroke-miterlimit="10" stroke-linecap="round"/>
<path d="M118.99 75.6553V117.319C118.99 120.731 116.36 123.495 113.1 123.495H58.68C55.43 123.495 52.79 120.731 52.79 117.319V72.7021" stroke="#364D98" stroke-width="3.7766" stroke-miterlimit="10" stroke-linecap="round"/>
<path d="M126.68 103.631C126.68 103.631 124.94 106.105 122.11 106.105C119.28 106.105 108.77 106.105 108.77 106.105C105.76 106.105 103.31 103.621 103.31 100.578C103.31 97.5347 105.77 95.0505 108.77 95.0505C108.77 95.0505 119.39 95.0505 122.11 95.0505C124.83 95.0505 126.68 92.5762 126.68 92.5762V103.631Z" fill="white"/>
<path d="M126.68 103.631C126.68 103.631 124.94 106.105 122.11 106.105C119.28 106.105 108.77 106.105 108.77 106.105C105.76 106.105 103.31 103.621 103.31 100.578C103.31 97.5347 105.77 95.0505 108.77 95.0505C108.77 95.0505 119.39 95.0505 122.11 95.0505C124.83 95.0505 126.68 92.5762 126.68 92.5762V103.631Z" stroke="#364D98" stroke-width="3.7766" stroke-miterlimit="10" stroke-linecap="round"/>
<path d="M109.35 102.713C110.449 102.713 111.34 101.824 111.34 100.728C111.34 99.6311 110.449 98.7422 109.35 98.7422C108.251 98.7422 107.36 99.6311 107.36 100.728C107.36 101.824 108.251 102.713 109.35 102.713Z" fill="#364D98"/>
<path d="M111.19 70.4478C110.33 70.9566 109.32 71.256 108.24 71.256C105.05 71.256 102.46 68.6719 102.46 65.4893" stroke="#364D98" stroke-width="3.7766" stroke-miterlimit="10" stroke-linecap="round"/>
<path d="M70 11.1641V28.1249" stroke="#C2DEF3" stroke-width="1.0318" stroke-miterlimit="10" stroke-linecap="round" stroke-dasharray="2 2"/>
<path d="M78 1.1875V25.1322" stroke="#C2DEF3" stroke-width="1.0318" stroke-miterlimit="10" stroke-linecap="round" stroke-dasharray="2 2"/>
<path d="M65 5.17773V31.1179" stroke="#C2DEF3" stroke-width="1.0318" stroke-miterlimit="10" stroke-linecap="round" stroke-dasharray="2 2"/>
<path d="M89.92 23.097C90.19 18.747 93.49 15.0256 97.99 14.3771C103.15 13.6388 107.93 17.2006 108.67 22.3487C109.08 25.2022 108.16 27.9458 106.38 29.9512" stroke="#C2DEF3" stroke-width="3.7766" stroke-miterlimit="10" stroke-linecap="round" stroke-dasharray="5 5"/>
<path d="M104.31 43.3797C104.31 51.3214 97.86 57.7566 89.9 57.7566C81.94 57.7566 75.49 51.3214 75.49 43.3797C75.49 35.4381 81.94 29.0029 89.9 29.0029C97.86 29.0029 104.31 35.4381 104.31 43.3797Z" stroke="#C2DEF3" stroke-width="3.7766" stroke-miterlimit="10" stroke-linecap="round" stroke-dasharray="5.03 5.03"/>
<path d="M92.42 98.7417C92.42 104.359 87.86 108.908 82.23 108.908C76.6 108.908 72.04 104.359 72.04 98.7417C72.04 93.1247 76.6 88.5752 82.23 88.5752C87.85 88.5752 92.42 93.1247 92.42 98.7417Z" stroke="#C2DEF3" stroke-width="3.7766" stroke-miterlimit="10" stroke-linecap="round" stroke-dasharray="5.34 5.34"/>
<path d="M130.15 147.64C136.313 147.64 141.31 142.655 141.31 136.505C141.31 130.356 136.313 125.371 130.15 125.371C123.986 125.371 118.99 130.356 118.99 136.505C118.99 142.655 123.986 147.64 130.15 147.64Z" fill="#DB3832"/>
<path d="M134.18 132.484L126.11 140.536" stroke="white" stroke-width="2" stroke-miterlimit="10" stroke-linecap="round"/>
<path d="M134.18 140.536L126.11 132.484" stroke="white" stroke-width="2" stroke-miterlimit="10" stroke-linecap="round"/>
</svg>
