<svg width="24" height="25" viewBox="0 0 24 25" fill="none" xmlns="http://www.w3.org/2000/svg">
<path fill-rule="evenodd" clip-rule="evenodd" d="M12.0004 22.0999C14.5465 22.0999 16.9883 21.0885 18.7886 19.2881C20.589 17.4878 21.6004 15.046 21.6004 12.4999C21.6004 9.95382 20.589 7.51203 18.7886 5.71168C16.9883 3.91133 14.5465 2.8999 12.0004 2.8999C9.45431 2.8999 7.01251 3.91133 5.21217 5.71168C3.41182 7.51203 2.40039 9.95382 2.40039 12.4999C2.40039 15.046 3.41182 17.4878 5.21217 19.2881C7.01251 21.0885 9.45431 22.0999 12.0004 22.0999ZM16.4488 10.9483C16.6674 10.722 16.7883 10.4189 16.7856 10.1042C16.7829 9.78958 16.6567 9.48861 16.4342 9.26612C16.2117 9.04363 15.9107 8.91743 15.5961 8.91469C15.2814 8.91196 14.9783 9.03291 14.752 9.2515L10.8004 13.2031L9.24879 11.6515C9.02247 11.4329 8.71934 11.312 8.40471 11.3147C8.09007 11.3174 7.7891 11.4436 7.56661 11.6661C7.34412 11.8886 7.21792 12.1896 7.21518 12.5042C7.21245 12.8189 7.3334 13.122 7.55199 13.3483L9.95199 15.7483C10.177 15.9733 10.4822 16.0996 10.8004 16.0996C11.1186 16.0996 11.4238 15.9733 11.6488 15.7483L16.4488 10.9483Z" fill="#141ED2"/>
</svg>
