<svg width="24" height="24" viewBox="0 0 24 24" fill="none" xmlns="http://www.w3.org/2000/svg">
<path d="M17 2H7C4.2 2 2 4.2 2 7V17C2 19.8 4.2 22 7 22H17C19.8 22 22 19.8 22 17V7C22 4.2 19.8 2 17 2Z" fill="#141ED2"/>
<path d="M10.3002 16.2C10.1002 16.2 9.90019 16.1 9.70019 16L7.3002 13.7C7.0002 13.4 7.0002 12.9 7.3002 12.5C7.6002 12.2 8.2002 12.2 8.5002 12.5L10.3002 14.3L15.7002 8.99999C16.0002 8.69999 16.6002 8.69999 16.9002 8.99999C17.2002 9.29999 17.2002 9.89999 16.9002 10.2L10.9002 16C10.7002 16.1 10.5002 16.2 10.3002 16.2Z" fill="white"/>
</svg>
