<svg width="11" height="12" viewBox="0 0 11 12" fill="none" xmlns="http://www.w3.org/2000/svg">
<g clip-path="url(#clip0_11713_31440)">
<path d="M8.89961 4.66025L4.57961 8.97025L2.09961 6.49025L2.74961 5.84025L4.57961 7.68025L8.24961 4.01025L8.89961 4.66025Z" fill="white"/>
<path d="M9.37978 2.61023C8.34978 1.58023 6.95978 0.990234 5.49978 0.990234C4.40978 0.990234 3.34978 1.31023 2.43978 1.92023C1.53978 2.52023 0.829776 3.38023 0.419776 4.39023C-0.000224352 5.39023 -0.110224 6.50023 0.109776 7.56023C0.319776 8.63023 0.839776 9.61024 1.60978 10.3802C2.37978 11.1502 3.35978 11.6702 4.42978 11.8802C5.48978 12.1002 6.59978 11.9902 7.59978 11.5702C8.60978 11.1602 9.46978 10.4502 10.0698 9.55023C10.6798 8.64023 10.9998 7.58023 10.9998 6.49023C10.9998 5.03023 10.4098 3.64023 9.37978 2.61023ZM2.74978 5.84023L4.57978 7.68023L8.24978 4.01023L8.89978 4.66023L4.57978 8.97023L2.09978 6.49023L2.74978 5.84023Z" fill="#F54A00"/>
</g>
<defs>
<clipPath id="clip0_11713_31440">
<rect width="11" height="11" fill="white" transform="translate(0 0.990234)"/>
</clipPath>
</defs>
</svg>
