<svg width="24" height="25" viewBox="0 0 24 25" fill="none" xmlns="http://www.w3.org/2000/svg">
<path d="M21.7302 5.74481L8.73019 19.7448C8.63695 19.8454 8.52403 19.9256 8.39845 19.9807C8.27286 20.0357 8.1373 20.0644 8.00019 20.0648C7.86858 20.0656 7.73812 20.0403 7.61628 19.9906C7.49444 19.9408 7.38363 19.8675 7.29019 19.7748L2.29019 14.7748C2.10188 14.5865 1.99609 14.3311 1.99609 14.0648C1.99609 13.7985 2.10188 13.5431 2.29019 13.3548C2.47849 13.1665 2.73388 13.0607 3.00019 13.0607C3.26649 13.0607 3.52188 13.1665 3.71019 13.3548L8.00019 17.6248L20.2702 4.38481C20.3565 4.27833 20.4639 4.19073 20.5855 4.12747C20.7071 4.06421 20.8405 4.02664 20.9772 4.01708C21.114 4.00753 21.2513 4.02619 21.3805 4.07193C21.5097 4.11766 21.6282 4.18948 21.7285 4.28293C21.8288 4.37637 21.9089 4.48945 21.9636 4.61513C22.0184 4.74081 22.0468 4.87641 22.0469 5.01351C22.0471 5.1506 22.019 5.28627 21.9645 5.41208C21.9101 5.53788 21.8303 5.65114 21.7302 5.74481Z" fill="#27AE60"/>
</svg>
