<svg width="27" height="27" viewBox="0 0 27 27" fill="none" xmlns="http://www.w3.org/2000/svg">
<path d="M1 13.5C1 6.59644 6.59644 1 13.5 1C20.4036 1 26 6.59644 26 13.5C26 20.4036 20.4036 26 13.5 26C6.59644 26 1 20.4036 1 13.5Z" fill="white"/>
<path d="M13.5 2.5625C7.45996 2.5625 2.5625 7.45996 2.5625 13.5C2.5625 19.54 7.45996 24.4375 13.5 24.4375C19.54 24.4375 24.4375 19.54 24.4375 13.5C24.4375 7.45996 19.54 2.5625 13.5 2.5625ZM18.2241 9.92822L13.0825 17.0571C13.0107 17.1574 12.9159 17.2392 12.8062 17.2955C12.6964 17.3519 12.5748 17.3813 12.4514 17.3813C12.328 17.3813 12.2064 17.3519 12.0967 17.2955C11.9869 17.2392 11.8922 17.1574 11.8203 17.0571L8.77588 12.8384C8.68311 12.709 8.77588 12.5283 8.93457 12.5283H10.0796C10.3286 12.5283 10.5654 12.6479 10.7119 12.853L12.4502 15.2651L16.2881 9.94287C16.4346 9.74023 16.6689 9.61816 16.9204 9.61816H18.0654C18.2241 9.61816 18.3169 9.79883 18.2241 9.92822Z" fill="#DD0071"/>
<path d="M13.5 25C7.14873 25 2 19.8513 2 13.5H0C0 20.9558 6.04416 27 13.5 27V25ZM25 13.5C25 19.8513 19.8513 25 13.5 25V27C20.9558 27 27 20.9558 27 13.5H25ZM13.5 2C19.8513 2 25 7.14873 25 13.5H27C27 6.04416 20.9558 0 13.5 0V2ZM13.5 0C6.04416 0 0 6.04416 0 13.5H2C2 7.14873 7.14873 2 13.5 2V0Z" fill="white"/>
</svg>
