<svg width="16" height="16" viewBox="0 0 16 16" fill="none" xmlns="http://www.w3.org/2000/svg">
<path fill-rule="evenodd" clip-rule="evenodd" d="M4.8206 1.48414C4.86924 1.43639 4.92703 1.3985 4.99065 1.37265C5.05427 1.3468 5.12248 1.3335 5.19136 1.3335C5.26024 1.3335 5.32845 1.3468 5.39207 1.37265C5.45569 1.3985 5.51348 1.43639 5.56212 1.48414L11.8462 7.63726C11.895 7.68489 11.9337 7.74148 11.9601 7.80377C11.9865 7.86607 12.0001 7.93285 12.0001 8.0003C12.0001 8.06774 11.9865 8.13453 11.9601 8.19682C11.9337 8.25912 11.895 8.3157 11.8462 8.36333L5.56212 14.5165C5.46379 14.6127 5.33042 14.6668 5.19136 14.6668C5.0523 14.6668 4.91893 14.6127 4.8206 14.5165C4.72226 14.4202 4.66702 14.2896 4.66702 14.1534C4.66702 14.0173 4.72226 13.8867 4.8206 13.7904L10.735 8.0003L4.8206 2.21021C4.77183 2.16258 4.73314 2.10599 4.70674 2.0437C4.68034 1.9814 4.66675 1.91462 4.66675 1.84717C4.66675 1.77973 4.68034 1.71294 4.70674 1.65065C4.73314 1.58835 4.77183 1.53177 4.8206 1.48414Z" fill="#8D8D8D"/>
</svg>
