<svg width="20" height="20" viewBox="0 0 20 20" fill="none" xmlns="http://www.w3.org/2000/svg">
  <path fill-rule="evenodd" clip-rule="evenodd" d="M14.8076 1.85505C14.8686 1.91459 14.9169 1.98532 14.9499 2.06319C14.9829 2.14106 14.9999 2.22454 14.9999 2.30884C14.9999 2.39315 14.9829 2.47663 14.9499 2.5545C14.9169 2.63237 14.8686 2.7031 14.8076 2.76264L7.41461 10.0002L14.8076 17.2379C14.9305 17.3582 14.9996 17.5215 14.9996 17.6917C14.9996 17.8619 14.9305 18.0251 14.8076 18.1454C14.6847 18.2658 14.518 18.3334 14.3442 18.3334C14.1703 18.3334 14.0036 18.2658 13.8807 18.1454L6.02556 10.454C5.9646 10.3945 5.91624 10.3238 5.88324 10.2459C5.85024 10.168 5.83325 10.0846 5.83325 10.0002C5.83325 9.91594 5.85024 9.83246 5.88324 9.75459C5.91624 9.67673 5.9646 9.606 6.02556 9.54646L13.8807 1.85505C13.9415 1.79536 14.0137 1.748 14.0933 1.71569C14.1728 1.68338 14.2581 1.66675 14.3442 1.66675C14.4303 1.66675 14.5155 1.68338 14.595 1.71569C14.6746 1.748 14.7468 1.79536 14.8076 1.85505Z" fill="white" />
</svg>