<svg width="24" height="25" viewBox="0 0 24 25" fill="none" xmlns="http://www.w3.org/2000/svg">
<path d="M19.7648 18.693C19.8398 18.7673 19.8993 18.8558 19.9399 18.9532C19.9805 19.0506 20.0014 19.1551 20.0014 19.2607C20.0014 19.3663 19.9805 19.4708 19.9399 19.5682C19.8993 19.6656 19.8398 19.7541 19.7648 19.8284C19.6905 19.9034 19.6021 19.9629 19.5046 20.0034C19.4072 20.044 19.3027 20.0649 19.1971 20.0649C19.0916 20.0649 18.9871 20.044 18.8896 20.0034C18.7922 19.9629 18.7037 19.9034 18.6294 19.8284L12.0007 13.1917L5.37196 19.8284C5.29763 19.9034 5.20919 19.9629 5.11175 20.0034C5.01431 20.044 4.9098 20.0649 4.80424 20.0649C4.69868 20.0649 4.59417 20.044 4.49673 20.0034C4.39929 19.9629 4.31086 19.9034 4.23652 19.8284C4.16158 19.7541 4.10209 19.6656 4.0615 19.5682C4.0209 19.4708 4 19.3663 4 19.2607C4 19.1551 4.0209 19.0506 4.0615 18.9532C4.10209 18.8558 4.16158 18.7673 4.23652 18.693L10.8732 12.0643L4.23652 5.43554C4.08595 5.28497 4.00136 5.08075 4.00136 4.86782C4.00136 4.76238 4.02213 4.65798 4.06248 4.56057C4.10283 4.46316 4.16197 4.37465 4.23652 4.3001C4.31108 4.22554 4.39958 4.1664 4.49699 4.12606C4.5944 4.08571 4.69881 4.06494 4.80424 4.06494C5.01718 4.06494 5.22139 4.14953 5.37196 4.3001L12.0007 10.9368L18.6294 4.3001C18.78 4.14953 18.9842 4.06494 19.1971 4.06494C19.4101 4.06494 19.6143 4.14953 19.7648 4.3001C19.9154 4.45067 20 4.65488 20 4.86782C20 5.08075 19.9154 5.28497 19.7648 5.43554L13.1281 12.0643L19.7648 18.693Z" fill="#BF2929"/>
</svg>
