<svg width="24" height="24" viewBox="0 0 24 24" fill="none" xmlns="http://www.w3.org/2000/svg">
<path fill-rule="evenodd" clip-rule="evenodd" d="M12.0004 21.6C14.5465 21.6 16.9883 20.5886 18.7886 18.7882C20.589 16.9879 21.6004 14.5461 21.6004 12C21.6004 9.45392 20.589 7.01212 18.7886 5.21177C16.9883 3.41142 14.5465 2.39999 12.0004 2.39999C9.45431 2.39999 7.01251 3.41142 5.21217 5.21177C3.41182 7.01212 2.40039 9.45392 2.40039 12C2.40039 14.5461 3.41182 16.9879 5.21217 18.7882C7.01251 20.5886 9.45431 21.6 12.0004 21.6ZM10.4488 8.75159C10.2225 8.533 9.91935 8.41205 9.60471 8.41478C9.29007 8.41752 8.9891 8.54372 8.76661 8.76621C8.54412 8.9887 8.41792 9.28968 8.41518 9.60431C8.41245 9.91895 8.5334 10.2221 8.75199 10.4484L10.3036 12L8.75199 13.5516C8.63738 13.6623 8.54596 13.7947 8.48307 13.9411C8.42018 14.0875 8.38707 14.245 8.38569 14.4043C8.38431 14.5636 8.41467 14.7217 8.475 14.8691C8.53534 15.0166 8.62444 15.1506 8.73712 15.2633C8.84979 15.3759 8.98377 15.465 9.13125 15.5254C9.27872 15.5857 9.43674 15.6161 9.59607 15.6147C9.75541 15.6133 9.91287 15.5802 10.0593 15.5173C10.2057 15.4544 10.3381 15.363 10.4488 15.2484L12.0004 13.6968L13.552 15.2484C13.7783 15.467 14.0814 15.5879 14.3961 15.5852C14.7107 15.5825 15.0117 15.4563 15.2342 15.2338C15.4567 15.0113 15.5829 14.7103 15.5856 14.3957C15.5883 14.081 15.4674 13.7779 15.2488 13.5516L13.6972 12L15.2488 10.4484C15.4674 10.2221 15.5883 9.91895 15.5856 9.60431C15.5829 9.28968 15.4567 8.9887 15.2342 8.76621C15.0117 8.54372 14.7107 8.41752 14.3961 8.41478C14.0814 8.41205 13.7783 8.533 13.552 8.75159L12.0004 10.3032L10.4488 8.75159Z" fill="#A2A0A8"/>
</svg>
