<svg width="72" height="72" viewBox="0 0 72 72" fill="none" xmlns="http://www.w3.org/2000/svg">
<path d="M6.5 36C6.5 19.7461 19.7461 6.5 36 6.5C52.2539 6.5 65.5 19.7461 65.5 36C65.5 52.2539 52.2539 65.5 36 65.5C19.7461 65.5 6.5 52.2539 6.5 36ZM46.4336 46.4336C47.4988 45.3683 47.4988 43.6117 46.4336 42.5464L39.8871 36L46.4336 29.4536C47.4988 28.3883 47.4988 26.6317 46.4336 25.5664C45.3683 24.5012 43.6117 24.5012 42.5464 25.5664L36 32.1129L29.4536 25.5664C28.3883 24.5012 26.6317 24.5012 25.5664 25.5664C24.5012 26.6317 24.5012 28.3883 25.5664 29.4536L32.1129 36L25.5664 42.5464C24.5012 43.6117 24.5012 45.3683 25.5664 46.4336C26.1152 46.9823 26.8145 47.24 27.51 47.24C28.2055 47.24 28.9048 46.9823 29.4536 46.4336L36 39.8871L42.5464 46.4336C43.0952 46.9823 43.7945 47.24 44.49 47.24C45.1855 47.24 45.8848 46.9823 46.4336 46.4336Z" fill="#DD0071" stroke="#DD0071"/>
</svg>
