<svg width="20" height="20" viewBox="0 0 20 20" fill="none" xmlns="http://www.w3.org/2000/svg">
<path fill-rule="evenodd" clip-rule="evenodd" d="M15.8042 5.52932C15.8663 5.59123 15.9155 5.66479 15.9491 5.74576C15.9827 5.82674 16 5.91355 16 6.00123C16 6.0889 15.9827 6.17571 15.9491 6.25669C15.9155 6.33767 15.8663 6.41122 15.8042 6.47314L6.47267 15.8047C6.34751 15.9298 6.17776 16.0002 6.00076 16.0002C5.82375 16.0002 5.654 15.9298 5.52885 15.8047C5.40369 15.6795 5.33337 15.5098 5.33337 15.3328C5.33337 15.1558 5.40369 14.986 5.52885 14.8609L14.8604 5.52932C14.9223 5.46724 14.9959 5.418 15.0768 5.38439C15.1578 5.35079 15.2446 5.3335 15.3323 5.3335C15.42 5.3335 15.5068 5.35079 15.5878 5.38439C15.6687 5.418 15.7423 5.46724 15.8042 5.52932Z" fill="#8D8D8D"/>
<path fill-rule="evenodd" clip-rule="evenodd" d="M5.52919 5.52932C5.46712 5.59123 5.41787 5.66479 5.38427 5.74576C5.35067 5.82674 5.33337 5.91355 5.33337 6.00123C5.33337 6.0889 5.35067 6.17571 5.38427 6.25669C5.41787 6.33767 5.46712 6.41122 5.52919 6.47314L14.8607 15.8047C14.9859 15.9298 15.1557 16.0002 15.3327 16.0002C15.5097 16.0002 15.6794 15.9298 15.8046 15.8047C15.9297 15.6795 16 15.5098 16 15.3328C16 15.1558 15.9297 14.986 15.8046 14.8609L6.47302 5.52932C6.4111 5.46724 6.33755 5.418 6.25657 5.38439C6.17559 5.35079 6.08878 5.3335 6.00111 5.3335C5.91343 5.3335 5.82662 5.35079 5.74564 5.38439C5.66466 5.418 5.59111 5.46724 5.52919 5.52932Z" fill="#8D8D8D"/>
</svg>
