<svg width="56" height="56" viewBox="0 0 56 56" fill="none" xmlns="http://www.w3.org/2000/svg">
<rect width="56" height="56" rx="28" fill="#F0F3FA"/>
<path d="M36.7354 35.4565C36.8198 35.5402 36.8867 35.6397 36.9324 35.7493C36.978 35.8589 37.0015 35.9765 37.0015 36.0952C37.0015 36.214 36.978 36.3316 36.9324 36.4412C36.8867 36.5508 36.8198 36.6503 36.7354 36.7339C36.6518 36.8182 36.5523 36.8851 36.4427 36.9308C36.3331 36.9765 36.2155 37 36.0968 37C35.978 37 35.8604 36.9765 35.7508 36.9308C35.6412 36.8851 35.5417 36.8182 35.4581 36.7339L28.0008 29.2676L20.5435 36.7339C20.4598 36.8182 20.3603 36.8851 20.2507 36.9308C20.1411 36.9765 20.0235 37 19.9048 37C19.786 37 19.6684 36.9765 19.5588 36.9308C19.4492 36.8851 19.3497 36.8182 19.2661 36.7339C19.1818 36.6503 19.1149 36.5508 19.0692 36.4412C19.0235 36.3316 19 36.214 19 36.0952C19 35.9765 19.0235 35.8589 19.0692 35.7493C19.1149 35.6397 19.1818 35.5402 19.2661 35.4565L26.7324 27.9992L19.2661 20.5419C19.0967 20.3725 19.0015 20.1428 19.0015 19.9032C19.0015 19.7846 19.0249 19.6672 19.0703 19.5576C19.1157 19.448 19.1822 19.3484 19.2661 19.2646C19.35 19.1807 19.4495 19.1141 19.5591 19.0688C19.6687 19.0234 19.7862 19 19.9048 19C20.1443 19 20.3741 19.0952 20.5435 19.2646L28.0008 26.7309L35.4581 19.2646C35.6275 19.0952 35.8572 19 36.0968 19C36.3363 19 36.5661 19.0952 36.7354 19.2646C36.9048 19.4339 37 19.6637 37 19.9032C37 20.1428 36.9048 20.3725 36.7354 20.5419L29.2691 27.9992L36.7354 35.4565Z" fill="#141ED2"/>
</svg>
