<svg width="20" height="20" viewBox="0 0 20 20" fill="none" xmlns="http://www.w3.org/2000/svg">
<path fill-rule="evenodd" clip-rule="evenodd" d="M15.8042 5.52907C15.8663 5.59099 15.9155 5.66454 15.9491 5.74552C15.9827 5.8265 16 5.91331 16 6.00098C16 6.08866 15.9827 6.17547 15.9491 6.25645C15.9155 6.33742 15.8663 6.41098 15.8042 6.47289L6.47264 15.8044C6.34748 15.9296 6.17773 15.9999 6.00072 15.9999C5.82372 15.9999 5.65397 15.9296 5.52881 15.8044C5.40366 15.6793 5.33334 15.5095 5.33334 15.3325C5.33334 15.1555 5.40366 14.9858 5.52881 14.8606L14.8604 5.52907C14.9223 5.467 14.9958 5.41775 15.0768 5.38415C15.1578 5.35055 15.2446 5.33325 15.3323 5.33325C15.42 5.33325 15.5068 5.35055 15.5877 5.38415C15.6687 5.41775 15.7423 5.467 15.8042 5.52907Z" fill="white"/>
<path fill-rule="evenodd" clip-rule="evenodd" d="M5.52916 5.52907C5.46709 5.59099 5.41784 5.66454 5.38424 5.74552C5.35064 5.8265 5.33334 5.91331 5.33334 6.00098C5.33334 6.08866 5.35064 6.17547 5.38424 6.25645C5.41784 6.33742 5.46709 6.41098 5.52916 6.47289L14.8607 15.8044C14.9859 15.9296 15.1556 15.9999 15.3326 15.9999C15.5096 15.9999 15.6794 15.9296 15.8045 15.8044C15.9297 15.6793 16 15.5095 16 15.3325C16 15.1555 15.9297 14.9858 15.8045 14.8606L6.47298 5.52907C6.41107 5.467 6.33752 5.41775 6.25654 5.38415C6.17556 5.35055 6.08875 5.33325 6.00107 5.33325C5.9134 5.33325 5.82659 5.35055 5.74561 5.38415C5.66463 5.41775 5.59108 5.467 5.52916 5.52907Z" fill="white"/>
</svg>
