<svg width="34" height="22" viewBox="0 0 34 22" fill="none" xmlns="http://www.w3.org/2000/svg">
<path d="M32.69 0.5H10.1799V3.42969C10.1799 3.96947 9.74315 4.40625 9.20337 4.40625C8.66359 4.40625 8.22681 3.96947 8.22681 3.42969V0.5H1.30981C0.770036 0.5 0.333252 0.936784 0.333252 1.47656V7.33594C0.333252 7.87572 0.770036 8.3125 1.30981 8.3125C2.92531 8.3125 4.2395 9.62669 4.2395 11.2422C4.2395 12.8577 2.92531 14.1719 1.30981 14.1719C0.770036 14.1719 0.333252 14.6087 0.333252 15.1484V21.0078C0.333252 21.5476 0.770036 21.9844 1.30981 21.9844H8.14575V19.0547C8.14575 18.5149 8.58254 18.0781 9.12232 18.0781C9.66209 18.0781 10.0989 18.5149 10.0989 19.0547V21.9844H32.69C33.2298 21.9844 33.6666 21.5476 33.6666 21.0078V1.47656C33.6666 0.936784 33.2298 0.5 32.69 0.5ZM10.0989 15.1484C10.0989 15.6882 9.66209 16.125 9.12232 16.125C8.58254 16.125 8.14575 15.6882 8.14575 15.1484V13.1953C8.14575 12.6555 8.58254 12.2188 9.12232 12.2188C9.66209 12.2188 10.0989 12.6555 10.0989 13.1953V15.1484ZM10.0989 9.28906C10.0989 9.82884 9.66209 10.2656 9.12232 10.2656C8.58254 10.2656 8.14575 9.82884 8.14575 9.28906V7.33594C8.14575 6.79616 8.58254 6.35938 9.12232 6.35938C9.66209 6.35938 10.0989 6.79616 10.0989 7.33594V9.28906ZM16.0885 7.33594C16.0885 5.72044 17.4027 4.40625 19.0181 4.40625C20.6336 4.40625 21.9478 5.72044 21.9478 7.33594C21.9478 8.95143 20.6336 10.2656 19.0181 10.2656C17.4027 10.2656 16.0885 8.95143 16.0885 7.33594ZM18.4765 17.9141C18.0273 17.6146 17.9062 17.009 18.2056 16.5598L26.0181 4.84108C26.3167 4.39193 26.9223 4.27174 27.3724 4.57025C27.8215 4.86973 27.9427 5.47526 27.6432 5.92448L19.8307 17.6432C19.5361 18.0857 18.9328 18.2165 18.4765 17.9141ZM26.8307 18.0781C25.2152 18.0781 23.901 16.7639 23.901 15.1484C23.901 13.5329 25.2152 12.2188 26.8307 12.2188C28.4461 12.2188 29.7603 13.5329 29.7603 15.1484C29.7603 16.7639 28.4461 18.0781 26.8307 18.0781Z" fill="white"/>
</svg>
