<svg width="24" height="24" viewBox="0 0 24 24" fill="none" xmlns="http://www.w3.org/2000/svg">
<path d="M23.7122 19.5186L13.965 2.21541C13.1339 0.704239 10.8671 0.704239 10.0359 2.21541L0.288747 19.5186C-0.542386 21.0298 0.515443 22.9188 2.25331 22.9188H21.6721C23.4855 22.8432 24.5434 21.0298 23.7122 19.5186Z" fill="#E24C4B"/>
<path d="M12.0005 3.34863L21.7477 20.6518H2.25331L12.0005 3.34863Z" fill="white"/>
<path d="M10.4138 11.2822L11.0182 15.2868C11.0938 15.7402 11.4716 16.118 12.0005 16.118C12.4539 16.118 12.9072 15.7402 12.9828 15.2868L13.5873 11.2822C13.7384 10.2999 12.9828 9.46875 12.0005 9.46875C11.0182 9.4687 10.3382 10.2999 10.4138 11.2822Z" fill="#3F4448"/>
<path d="M12.0005 18.7627C12.5012 18.7627 12.9072 18.3567 12.9072 17.856C12.9072 17.3552 12.5012 16.9492 12.0005 16.9492C11.4997 16.9492 11.0937 17.3552 11.0937 17.856C11.0937 18.3567 11.4997 18.7627 12.0005 18.7627Z" fill="#3F4448"/>
</svg>
