<svg width="24" height="25" viewBox="0 0 24 25" fill="none" xmlns="http://www.w3.org/2000/svg">
<path d="M19.1667 9.14827C19.1667 5.24243 15.9892 2.06494 12.0833 2.06494C8.17749 2.06494 5 5.24243 5 9.14827C5 12.7715 7.73621 15.7637 11.25 16.1783V17.8983H9.58333C9.12333 17.8983 8.75 18.2716 8.75 18.7316C8.75 19.1916 9.12333 19.5649 9.58333 19.5649H11.25V21.2316C11.25 21.6916 11.6233 22.0649 12.0833 22.0649C12.5433 22.0649 12.9167 21.6916 12.9167 21.2316V19.5649H14.5833C15.0433 19.5649 15.4167 19.1916 15.4167 18.7316C15.4167 18.2716 15.0433 17.8983 14.5833 17.8983H12.9167V16.1783C16.4305 15.7637 19.1667 12.7715 19.1667 9.14827ZM6.66667 9.14827C6.66667 6.16162 9.09668 3.73161 12.0833 3.73161C15.07 3.73161 17.5 6.16162 17.5 9.14827C17.5 12.1349 15.07 14.5649 12.0833 14.5649C9.09668 14.5649 6.66667 12.1349 6.66667 9.14827Z" fill="#DD0071"/>
</svg>
