<svg width="24" height="24" viewBox="0 0 24 24" fill="none" xmlns="http://www.w3.org/2000/svg">
<path d="M19.5502 10.9971C19.0952 9.97305 18.4337 9.05388 17.6072 8.29714L16.9252 7.67136C16.902 7.65069 16.8742 7.63603 16.844 7.62865C16.8139 7.62127 16.7824 7.62141 16.7523 7.62905C16.7222 7.63668 16.6945 7.65159 16.6715 7.67245C16.6485 7.69331 16.631 7.7195 16.6205 7.7487L16.3158 8.62292C16.126 9.17136 15.7768 9.73152 15.2822 10.2823C15.2494 10.3175 15.2119 10.3268 15.1861 10.3292C15.1604 10.3315 15.1205 10.3268 15.0854 10.294C15.0525 10.2659 15.0361 10.2237 15.0385 10.1815C15.1252 8.77058 14.7033 7.17917 13.7799 5.44714C13.0158 4.00808 11.9541 2.88542 10.6275 2.10261L9.65957 1.53308C9.53301 1.45808 9.37129 1.55652 9.37832 1.70417L9.42988 2.82917C9.46504 3.59792 9.37598 4.27761 9.16504 4.84245C8.90723 5.53386 8.53691 6.17605 8.06348 6.75261C7.734 7.1533 7.36056 7.51573 6.9502 7.83308C5.96185 8.59284 5.1582 9.56636 4.59941 10.6807C4.04201 11.8048 3.75166 13.0424 3.75098 14.2971C3.75098 15.4034 3.96895 16.4745 4.4002 17.4846C4.8166 18.4572 5.41752 19.3399 6.16973 20.0839C6.9291 20.8339 7.81035 21.4245 8.79238 21.8346C9.80957 22.2612 10.8877 22.4768 12.001 22.4768C13.1143 22.4768 14.1924 22.2612 15.2096 21.837C16.1892 21.4292 17.08 20.8346 17.8322 20.0862C18.5916 19.3362 19.1869 18.4596 19.6018 17.487C20.0324 16.4796 20.2533 15.395 20.251 14.2995C20.251 13.1557 20.0166 12.0448 19.5502 10.9971Z" fill="white"/>
</svg>
