<svg width="24" height="25" viewBox="0 0 24 25" fill="none" xmlns="http://www.w3.org/2000/svg">
<path d="M12 2.13373C6.20156 2.13373 1.5 6.83529 1.5 12.6337C1.5 18.4322 6.20156 23.1337 12 23.1337C17.7984 23.1337 22.5 18.4322 22.5 12.6337C22.5 6.83529 17.7984 2.13373 12 2.13373ZM15.6258 12.7861L9.86016 16.9579C9.73594 17.047 9.5625 16.9579 9.5625 16.8056V15.7064C9.5625 15.4673 9.67734 15.24 9.87188 15.0994L13.2797 12.6337L9.87188 10.1681C9.67734 10.0275 9.5625 9.80248 9.5625 9.56107V8.46185C9.5625 8.30951 9.73594 8.22045 9.86016 8.30951L15.6258 12.4814C15.7289 12.5564 15.7289 12.7111 15.6258 12.7861Z" fill="#DD0071"/>
</svg>
