<svg width="72" height="73" viewBox="0 0 72 73" fill="none" xmlns="http://www.w3.org/2000/svg">
<path d="M54 9.21338H18C15.6131 9.21338 13.3239 10.1616 11.636 11.8494C9.94821 13.5372 9 15.8264 9 18.2134V54.2134C9 56.6003 9.94821 58.8895 11.636 60.5773C13.3239 62.2652 15.6131 63.2134 18 63.2134H54C56.3869 63.2134 58.6761 62.2652 60.364 60.5773C62.0518 58.8895 63 56.6003 63 54.2134V18.2134C63 15.8264 62.0518 13.5372 60.364 11.8494C58.6761 10.1616 56.3869 9.21338 54 9.21338ZM18 15.2134H54C54.7957 15.2134 55.5587 15.5294 56.1213 16.0921C56.6839 16.6547 57 17.4177 57 18.2134V43.2934L47.4 35.1034C45.9126 33.8795 44.0462 33.2104 42.12 33.2104C40.1938 33.2104 38.3274 33.8795 36.84 35.1034L15 53.3134V18.2134C15 17.4177 15.3161 16.6547 15.8787 16.0921C16.4413 15.5294 17.2044 15.2134 18 15.2134Z" fill="#999999"/>
<path d="M24 30.2134C26.4853 30.2134 28.5 28.1987 28.5 25.7134C28.5 23.2281 26.4853 21.2134 24 21.2134C21.5147 21.2134 19.5 23.2281 19.5 25.7134C19.5 28.1987 21.5147 30.2134 24 30.2134Z" fill="#999999"/>
</svg>
