<svg width="20" height="21" viewBox="0 0 20 21" fill="none" xmlns="http://www.w3.org/2000/svg">
<path fill-rule="evenodd" clip-rule="evenodd" d="M18 10.7134C18 12.8351 17.1571 14.8699 15.6569 16.3702C14.1566 17.8705 12.1217 18.7134 10 18.7134C7.87827 18.7134 5.84344 17.8705 4.34315 16.3702C2.84285 14.8699 2 12.8351 2 10.7134C2 8.59165 2.84285 6.55682 4.34315 5.05652C5.84344 3.55623 7.87827 2.71338 10 2.71338C12.1217 2.71338 14.1566 3.55623 15.6569 5.05652C17.1571 6.55682 18 8.59165 18 10.7134ZM11 6.71338C11 6.9786 10.8946 7.23295 10.7071 7.42049C10.5196 7.60802 10.2652 7.71338 10 7.71338C9.73478 7.71338 9.48043 7.60802 9.29289 7.42049C9.10536 7.23295 9 6.9786 9 6.71338C9 6.44816 9.10536 6.19381 9.29289 6.00627C9.48043 5.81874 9.73478 5.71338 10 5.71338C10.2652 5.71338 10.5196 5.81874 10.7071 6.00627C10.8946 6.19381 11 6.44816 11 6.71338ZM9 9.71338C8.73478 9.71338 8.48043 9.81874 8.29289 10.0063C8.10536 10.1938 8 10.4482 8 10.7134C8 10.9786 8.10536 11.2329 8.29289 11.4205C8.48043 11.608 8.73478 11.7134 9 11.7134V14.7134C9 14.9786 9.10536 15.2329 9.29289 15.4205C9.48043 15.608 9.73478 15.7134 10 15.7134H11C11.2652 15.7134 11.5196 15.608 11.7071 15.4205C11.8946 15.2329 12 14.9786 12 14.7134C12 14.4482 11.8946 14.1938 11.7071 14.0063C11.5196 13.8187 11.2652 13.7134 11 13.7134V10.7134C11 10.4482 10.8946 10.1938 10.7071 10.0063C10.5196 9.81874 10.2652 9.71338 10 9.71338H9Z" fill="#767676"/>
</svg>
