<svg width="24" height="24" viewBox="0 0 24 24" fill="none" xmlns="http://www.w3.org/2000/svg">
<path d="M7.45019 9.52102L5.34704 11.5237C4.48455 12.345 4 13.459 4 14.6205C4 15.782 4.48455 16.896 5.34704 17.7173C6.20954 18.5386 7.37934 19 8.5991 19C9.81886 19 10.9887 18.5386 11.8512 17.7173L14.6533 15.0475C15.1734 14.5521 15.5611 13.9452 15.784 13.2776C16.0068 12.6101 16.0582 11.9014 15.9338 11.211C15.8095 10.5206 15.513 9.86867 15.0694 9.30995C14.6257 8.75123 14.0478 8.30201 13.3841 8L12.4858 8.85539C12.3946 8.94238 12.3153 9.03997 12.2497 9.14587C12.7625 9.28625 13.228 9.55164 13.6 9.91581C13.9721 10.28 14.2379 10.7303 14.3712 11.2223C14.5046 11.7143 14.5007 12.2308 14.3601 12.721C14.2195 13.2111 13.947 13.6578 13.5695 14.0169L10.7689 16.6853C10.1937 17.2331 9.41342 17.5408 8.59987 17.5408C7.78631 17.5408 7.00608 17.2331 6.43081 16.6853C5.85554 16.1375 5.53235 15.3945 5.53235 14.6198C5.53235 13.8451 5.85554 13.1021 6.43081 12.5543L7.6464 11.3982C7.47489 10.7862 7.40863 10.1518 7.45019 9.51956V9.52102Z" fill="#A8A8A8"/>
<path d="M9.00812 11L9.29395 10.7142C9.71801 10.2885 10.2471 9.98265 10.8276 9.82755C10.9827 9.2471 11.2885 8.718 11.7142 8.29395L12 8.00811C11.139 7.9597 10.2797 8.12863 9.50106 8.49934C9.12451 9.28668 8.96019 10.1476 9.00812 10.9983V11Z" fill="#A8A8A8"/>
<path d="M10.3467 6.95159C9.82659 7.447 9.43886 8.05401 9.21605 8.72166C8.99323 9.38931 8.94183 10.0981 9.06617 10.7886C9.19051 11.4791 9.48696 12.1311 9.93062 12.6899C10.3743 13.2487 10.9522 13.6979 11.6159 14L12.8039 12.8671C12.2842 12.7343 11.8103 12.4736 11.4299 12.1112C11.0495 11.7487 10.7759 11.2973 10.6367 10.8023C10.4976 10.3072 10.4976 9.78601 10.6369 9.29101C10.7763 8.79601 11.0499 8.34465 11.4305 7.98229L14.2311 5.31359C14.8063 4.76571 15.5866 4.45792 16.4001 4.45792C17.2137 4.45792 17.9939 4.76571 18.5692 5.31359C19.1445 5.86146 19.4676 6.60454 19.4676 7.37935C19.4676 8.15416 19.1445 8.89723 18.5692 9.44511L17.3536 10.6013C17.5253 11.2145 17.5912 11.8496 17.5498 12.4802L19.653 10.4773C20.5155 9.65583 21 8.54174 21 7.38008C21 6.21841 20.5155 5.10432 19.653 4.28289C18.7905 3.46147 17.6207 3 16.4009 3C15.1811 3 14.0113 3.46147 13.1488 4.28289L10.3467 6.95159Z" fill="#A8A8A8"/>
<path d="M15.4988 14.4989C15.8711 13.7208 16.0407 12.8612 15.9918 12L15.7059 12.2858C15.2819 12.7115 14.7528 13.0173 14.1724 13.1725C14.0173 13.7529 13.7114 14.282 13.2858 14.7061L13 14.9919C13.861 15.0403 14.7203 14.8714 15.4988 14.5007V14.4989Z" fill="#A8A8A8"/>
</svg>
