<svg width="24" height="24" viewBox="0 0 24 24" fill="none" xmlns="http://www.w3.org/2000/svg">
<g clip-path="url(#clip0)">
<path d="M15.1111 9.24301C14.4504 8.5824 13.6421 8.15729 12.7913 7.96777L10.3075 11.1597C11.1034 10.3638 12.3984 10.3638 13.1943 11.1597C13.9902 11.9556 13.9902 13.2506 13.1943 14.0465L7.01586 20.225C6.21996 21.021 4.92495 21.021 4.12906 20.225C3.33317 19.4291 3.33317 18.1341 4.12906 17.3382L8.34068 13.1266L8.48876 9.14513L2.21234 15.4215C0.359559 17.2743 0.359559 20.289 2.21234 22.1417C4.06512 23.9945 7.07979 23.9945 8.93257 22.1417L15.1111 15.9632C16.9639 14.1105 16.9639 11.0957 15.1111 9.24301Z" fill="#66DFF6"/>
<path d="M21.7875 1.85834C19.9348 0.00555468 16.9201 0.00555468 15.0673 1.85834L8.90277 8.02287C7.04999 9.87565 7.04999 12.8903 8.90277 14.7431C9.56343 15.4038 10.3718 15.8288 11.2225 16.0183L13.7863 12.7465L13.7063 12.8264C12.9104 13.6223 11.6154 13.6223 10.8195 12.8264C10.0236 12.0305 10.0236 10.7355 10.8195 9.93959L16.984 3.77505C17.7799 2.97912 19.0749 2.97912 19.8709 3.77505C20.6668 4.57095 20.6668 5.86596 19.8709 6.66185L16.0063 10.5264L16.4239 13.9422L21.7875 8.57857C23.6403 6.72574 23.6403 3.71107 21.7875 1.85834Z" fill="#98EAF9"/>
<path d="M23.6459 5.21845C23.6459 3.82252 23.1036 2.51147 22.119 1.52686C21.1344 0.54225 19.8233 0 18.4275 0C18.4274 0 18.4275 0 18.4275 0C17.0316 0 15.7204 0.542297 14.7359 1.52686L13.1072 3.15548C12.9242 3.33853 12.9242 3.63534 13.1072 3.81844C13.2903 4.00144 13.5871 4.00148 13.7701 3.81844L15.3988 2.18981C16.2063 1.3822 17.2819 0.9375 18.4275 0.9375C19.573 0.9375 20.6485 1.38225 21.4561 2.18981C22.2637 2.99738 22.7084 4.07292 22.7084 5.21845C22.7084 6.36398 22.2637 7.43953 21.4561 8.24705L16.9678 12.7353C16.9689 12.6913 16.9695 12.6472 16.9695 12.603C16.9695 11.9096 16.8355 11.2373 16.5802 10.6154L20.2023 6.99323C20.6758 6.51975 20.9365 5.88947 20.9365 5.21841C20.9365 4.54734 20.6758 3.91697 20.2023 3.44353C19.2237 2.46487 17.6312 2.46487 16.6526 3.44353L10.488 9.60806C9.50935 10.5868 9.50935 12.1792 10.488 13.1579C10.9773 13.6471 11.6201 13.8918 12.2629 13.8918C12.4193 13.8918 12.5756 13.8771 12.7298 13.8481L11.0798 15.498C10.3838 15.2992 9.74972 14.9272 9.23419 14.4116C8.42663 13.6041 7.98193 12.5285 7.98193 11.383C7.98193 10.2375 8.42667 9.16186 9.23419 8.35434L10.7878 6.80077C10.9708 6.61772 10.9709 6.32091 10.7878 6.13781C10.6047 5.95486 10.308 5.95481 10.1249 6.13781L8.57128 7.69139C8.01605 8.24667 7.60153 8.90578 7.34555 9.62531L1.88091 15.09C0.896301 16.0746 0.354004 17.3857 0.354004 18.7816C0.354004 20.1775 0.896254 21.4885 1.88086 22.4731C2.86552 23.4578 4.17657 24 5.57246 24H5.5725C6.96835 24 8.27949 23.4577 9.26405 22.4731L15.4426 16.2946C15.9978 15.7394 16.4123 15.0802 16.6683 14.3607L22.119 8.91C23.1036 7.92539 23.6459 6.61434 23.6459 5.21845ZM17.3155 4.10648C17.9287 3.49341 18.9263 3.49341 19.5394 4.10648C19.8358 4.40287 19.999 4.7978 19.999 5.21845C19.999 5.63911 19.8358 6.03394 19.5394 6.33038L16.1225 9.74728C15.9272 9.4493 15.7002 9.16912 15.4426 8.9115C14.9348 8.4038 14.3325 8.01038 13.6722 7.7498L17.3155 4.10648ZM11.151 12.495C10.8589 12.203 10.7063 11.8238 10.6925 11.4404C11.3088 10.8786 12.2673 10.8955 12.863 11.4911C13.155 11.7832 13.3076 12.1624 13.3215 12.5458C13.0318 12.8099 12.6588 12.9546 12.2629 12.9546C11.8422 12.9546 11.4473 12.7913 11.151 12.495ZM10.3417 16.2363L6.68443 19.8935C6.38804 20.1899 5.99311 20.3532 5.57246 20.3532C5.1518 20.3532 4.75693 20.19 4.46053 19.8935C4.1641 19.5971 4.00088 19.2022 4.00088 18.7815C4.00088 18.3609 4.1641 17.966 4.46053 17.6696L7.89136 14.2388C8.08664 14.5368 8.31366 14.817 8.57128 15.0746C9.07903 15.5823 9.68143 15.9757 10.3417 16.2363ZM14.7796 15.6317L8.60114 21.8102C7.79358 22.6178 6.71799 23.0625 5.57246 23.0625C4.42693 23.0625 3.35138 22.6178 2.54382 21.8102C1.73625 21.0026 1.29155 19.9271 1.29155 18.7816C1.29155 17.6361 1.7363 16.5605 2.54386 15.753L7.04611 11.2507C7.04503 11.2947 7.04447 11.3388 7.04447 11.383C7.04447 12.0764 7.17839 12.7488 7.43372 13.3707L3.79768 17.0068C3.32419 17.4802 3.06343 18.1105 3.06343 18.7816C3.06343 19.4527 3.32419 20.083 3.79763 20.5565C4.287 21.0457 4.92975 21.2904 5.5725 21.2904C6.21525 21.2904 6.85805 21.0457 7.34738 20.5565L13.5259 14.378C14.5046 13.3993 14.5046 11.8069 13.5259 10.8282C12.9175 10.2198 12.072 9.98991 11.2841 10.1379L12.9341 8.48798C13.6301 8.68683 14.2642 9.05888 14.7797 9.57441C15.5873 10.3819 16.032 11.4575 16.032 12.603C16.032 13.7486 15.5872 14.8242 14.7796 15.6317Z" fill="black"/>
<path d="M11.948 5.44629C12.0713 5.44629 12.1922 5.39618 12.2794 5.30895C12.3666 5.22176 12.4168 5.10077 12.4168 4.97754C12.4168 4.85426 12.3666 4.73332 12.2794 4.64618C12.1922 4.55899 12.0713 4.50879 11.948 4.50879C11.8247 4.50879 11.7038 4.55895 11.6166 4.64618C11.5294 4.73332 11.4792 4.85426 11.4792 4.97754C11.4792 5.10082 11.5294 5.22176 11.6166 5.30895C11.7038 5.39618 11.8247 5.44629 11.948 5.44629Z" fill="black"/>
</g>
<defs>
<clipPath id="clip0">
<rect width="24" height="24" fill="white"/>
</clipPath>
</defs>
</svg>
