<svg width="183" height="152" viewBox="0 0 183 152" fill="none" xmlns="http://www.w3.org/2000/svg">
<path opacity="0.3" d="M17.38 95.9802C13.97 109.59 23.49 135.07 49.21 145.2C85.9 159.66 121.74 147.42 140.68 131.93C185.99 94.8802 154.68 19.3602 121.51 47.6402C94.1 71.0102 91.93 102.22 66.49 96.8802C41.13 91.5502 22.67 74.8602 17.38 95.9802Z" fill="#93D1F2"/>
<path opacity="0.5" d="M40.07 104.95C37.72 114.34 44.28 131.91 62.02 138.89C87.32 148.86 112.04 140.42 125.1 129.74C156.35 104.19 134.75 52.1102 111.88 71.6102C92.98 87.7202 91.49 109.24 73.94 105.56C56.45 101.89 43.72 90.3801 40.07 104.95Z" fill="#73B4E1"/>
<path d="M152.4 21.82C158.425 21.82 163.31 16.9354 163.31 10.91C163.31 4.88457 158.425 0 152.4 0C146.375 0 141.49 4.88457 141.49 10.91C141.49 16.9354 146.375 21.82 152.4 21.82Z" fill="#5CB157"/>
<path d="M4.4 73.1901C6.83005 73.1901 8.8 71.2202 8.8 68.7901C8.8 66.3601 6.83005 64.3901 4.4 64.3901C1.96995 64.3901 0 66.3601 0 68.7901C0 71.2202 1.96995 73.1901 4.4 73.1901Z" fill="#5CB157"/>
<path d="M177.96 48.9099C180.39 48.9099 182.36 46.9399 182.36 44.5099C182.36 42.0798 180.39 40.1099 177.96 40.1099C175.53 40.1099 173.56 42.0798 173.56 44.5099C173.56 46.9399 175.53 48.9099 177.96 48.9099Z" fill="#5CB157"/>
<path d="M80.47 85.7298L44.83 50.0898C40.16 45.4198 40.16 37.7898 44.83 33.1198L66.69 11.2598C71.36 6.58982 78.99 6.58982 83.66 11.2598L119.3 46.8998C123.97 51.5698 123.97 59.1998 119.3 63.8698L97.44 85.7298C92.77 90.3998 85.13 90.3998 80.47 85.7298Z" fill="#C2DEF3"/>
<path d="M81.27 125.37L45.5 89.6001C40.83 84.9301 40.83 77.3001 45.5 72.6301L67.36 50.7701C72.03 46.1001 79.66 46.1001 84.33 50.7701L120.09 86.5301C124.76 91.2001 124.76 98.8301 120.09 103.5L98.23 125.36C93.57 130.03 85.93 130.03 81.27 125.37Z" fill="white"/>
<path d="M56.44 61.6998L42.22 47.4798C38.97 44.2298 38.97 38.9698 42.22 35.7298L59.36 18.5898" stroke="#364D98" stroke-width="3.7766" stroke-miterlimit="10" stroke-linecap="round"/>
<path d="M102.73 49.8998L65.39 12.5598L69.17 8.77979C72.42 5.52979 77.68 5.52979 80.92 8.77979L121.78 49.6398C125.03 52.8898 125.03 58.1498 121.78 61.3898L99.94 83.2298C96.55 86.6198 91.05 86.6198 87.65 83.2298L77.62 73.1898" stroke="#364D98" stroke-width="3.7766" stroke-miterlimit="10" stroke-linecap="round"/>
<path d="M79.67 75.2502L61.28 56.8602L69.92 48.2202C73.17 44.9702 78.43 44.9702 81.67 48.2202L122.53 89.0802C125.78 92.3302 125.78 97.5902 122.53 100.83L95.58 127.78C92.33 131.03 87.07 131.03 83.83 127.78L42.96 86.9302C39.71 83.6802 39.71 78.4202 42.96 75.1802L56.44 61.7002" stroke="#364D98" stroke-width="3.7766" stroke-miterlimit="10" stroke-linecap="round"/>
<path d="M87.81 121.48L77.35 111.02C76.44 110.11 76.44 108.63 77.35 107.73L83.17 101.91C84.08 101 85.56 101 86.46 101.91L96.92 112.37C97.83 113.28 97.83 114.76 96.92 115.66L91.1 121.48C90.2 122.39 88.72 122.39 87.81 121.48Z" stroke="#364D98" stroke-width="3.7766" stroke-miterlimit="10" stroke-linecap="round"/>
<path d="M135.84 141.83C142.003 141.83 147 136.833 147 130.67C147 124.506 142.003 119.51 135.84 119.51C129.676 119.51 124.68 124.506 124.68 130.67C124.68 136.833 129.676 141.83 135.84 141.83Z" fill="#5CB157"/>
<path d="M131.39 131.62L135.84 134.4L141.62 126.95" stroke="white" stroke-width="2" stroke-miterlimit="10" stroke-linecap="round"/>
</svg>
