<svg width="183" height="152" viewBox="0 0 183 152" fill="none" xmlns="http://www.w3.org/2000/svg">
<g clip-path="url(#clip0)">
<path opacity="0.3" d="M17.38 95.9802C13.97 109.59 23.49 135.07 49.21 145.2C85.9 159.66 121.74 147.42 140.68 131.93C185.99 94.8802 154.68 19.3602 121.51 47.6402C94.1 71.0102 91.93 102.22 66.49 96.8802C41.13 91.5502 22.67 74.8602 17.38 95.9802Z" fill="#93D1F2"/>
<path opacity="0.5" d="M40.07 104.95C37.72 114.34 44.28 131.91 62.02 138.89C87.32 148.86 112.04 140.42 125.1 129.74C156.35 104.19 134.75 52.1102 111.88 71.6102C92.98 87.7202 91.49 109.24 73.94 105.56C56.45 101.89 43.72 90.3801 40.07 104.95Z" fill="#73B4E1"/>
<path d="M152.4 21.82C158.425 21.82 163.31 16.9354 163.31 10.91C163.31 4.88457 158.425 0 152.4 0C146.375 0 141.49 4.88457 141.49 10.91C141.49 16.9354 146.375 21.82 152.4 21.82Z" fill="#DB3832"/>
<path d="M4.4 73.1901C6.83005 73.1901 8.8 71.2202 8.8 68.7901C8.8 66.3601 6.83005 64.3901 4.4 64.3901C1.96995 64.3901 0 66.3601 0 68.7901C0 71.2202 1.96995 73.1901 4.4 73.1901Z" fill="#DB3832"/>
<path d="M177.96 48.9099C180.39 48.9099 182.36 46.9399 182.36 44.5099C182.36 42.0798 180.39 40.1099 177.96 40.1099C175.53 40.1099 173.56 42.0798 173.56 44.5099C173.56 46.9399 175.53 48.9099 177.96 48.9099Z" fill="#DB3832"/>
<path d="M81.27 125.76L45.5 90C40.83 85.33 40.83 77.7 45.5 73.03L67.36 51.17C72.03 46.5 79.66 46.5 84.33 51.17L120.09 86.93C124.76 91.6 124.76 99.23 120.09 103.9L98.23 125.76C93.57 130.43 85.93 130.43 81.27 125.76Z" fill="white"/>
<path d="M51.72 57.3802L42.22 47.8802C38.97 44.6302 38.97 39.3702 42.22 36.1302L59.36 18.9902" stroke="#C2DEF3" stroke-width="3.7766" stroke-miterlimit="10" stroke-linecap="round" stroke-dasharray="5 5"/>
<path d="M102.73 50.2902L65.39 12.9602L69.17 9.18018C72.42 5.93018 77.68 5.93018 80.92 9.18018L121.78 50.0402C125.03 53.2902 125.03 58.5502 121.78 61.7902L112.75 70.8202" stroke="#C2DEF3" stroke-width="3.7766" stroke-miterlimit="10" stroke-linecap="round" stroke-dasharray="5 5"/>
<path d="M79.67 75.6501L61.28 57.2601L69.92 48.6201C73.17 45.3701 78.43 45.3701 81.67 48.6201L122.53 89.4801C125.78 92.7301 125.78 97.9901 122.53 101.23L95.58 128.18C92.33 131.43 87.07 131.43 83.83 128.18L42.96 87.3301C39.71 84.0801 39.71 78.8201 42.96 75.5801L56.44 62.1001" stroke="#364D98" stroke-width="3.7766" stroke-miterlimit="10" stroke-linecap="round"/>
<path d="M87.81 121.88L77.35 111.42C76.44 110.51 76.44 109.03 77.35 108.13L83.17 102.31C84.08 101.4 85.56 101.4 86.46 102.31L96.92 112.77C97.83 113.68 97.83 115.16 96.92 116.06L91.1 121.88C90.2 122.79 88.72 122.79 87.81 121.88Z" stroke="#364D98" stroke-width="3.7766" stroke-miterlimit="10" stroke-linecap="round"/>
<path d="M136.64 147.13C142.803 147.13 147.8 142.134 147.8 135.97C147.8 129.807 142.803 124.81 136.64 124.81C130.477 124.81 125.48 129.807 125.48 135.97C125.48 142.134 130.477 147.13 136.64 147.13Z" fill="#DB3832"/>
<path d="M140.67 131.93L132.6 140.01" stroke="white" stroke-width="2" stroke-miterlimit="10" stroke-linecap="round"/>
<path d="M140.67 140.01L132.6 131.93" stroke="white" stroke-width="2" stroke-miterlimit="10" stroke-linecap="round"/>
</g>
<defs>
<clipPath id="clip0">
<rect width="182.36" height="151.65" fill="white"/>
</clipPath>
</defs>
</svg>
