<svg width="24" height="24" viewBox="0 0 24 24" fill="none" xmlns="http://www.w3.org/2000/svg">
<path fill-rule="evenodd" clip-rule="evenodd" d="M7.13333 18.2222C7.13333 18.0159 7.21411 17.8181 7.35788 17.6722C7.50166 17.5264 7.69667 17.4444 7.9 17.4444H23.2333C23.4367 17.4444 23.6317 17.5264 23.7754 17.6722C23.9192 17.8181 24 18.0159 24 18.2222C24 18.4285 23.9192 18.6263 23.7754 18.7722C23.6317 18.9181 23.4367 19 23.2333 19H7.9C7.69667 19 7.50166 18.9181 7.35788 18.7722C7.21411 18.6263 7.13333 18.4285 7.13333 18.2222ZM4.06667 12C4.06667 11.7937 4.14744 11.5959 4.29122 11.45C4.435 11.3042 4.63 11.2222 4.83333 11.2222H20.1667C20.37 11.2222 20.565 11.3042 20.7088 11.45C20.8526 11.5959 20.9333 11.7937 20.9333 12C20.9333 12.2063 20.8526 12.4041 20.7088 12.55C20.565 12.6958 20.37 12.7778 20.1667 12.7778H4.83333C4.63 12.7778 4.435 12.6958 4.29122 12.55C4.14744 12.4041 4.06667 12.2063 4.06667 12ZM1 5.77778C1 5.5715 1.08077 5.37367 1.22455 5.22781C1.36833 5.08194 1.56333 5 1.76667 5H17.1C17.3033 5 17.4983 5.08194 17.6421 5.22781C17.7859 5.37367 17.8667 5.5715 17.8667 5.77778C17.8667 5.98406 17.7859 6.18189 17.6421 6.32775C17.4983 6.47361 17.3033 6.55556 17.1 6.55556H1.76667C1.56333 6.55556 1.36833 6.47361 1.22455 6.32775C1.08077 6.18189 1 5.98406 1 5.77778Z" fill="black"/>
</svg>
