<svg width="24" height="24" viewBox="0 0 24 24" fill="none" xmlns="http://www.w3.org/2000/svg">
<path fill-rule="evenodd" clip-rule="evenodd" d="M12 4.00049C10.6156 4.00049 9.26219 4.41102 8.11105 5.18018C6.95991 5.94933 6.06271 7.04256 5.53288 8.32162C5.00306 9.60068 4.86441 11.0081 5.13448 12.366C5.40454 13.7238 6.07115 14.971 7.05003 15.95C7.05006 15.95 7.04999 15.95 7.05003 15.95L11.294 20.193C11.3867 20.2858 11.4972 20.3598 11.6184 20.41C11.7395 20.4603 11.8694 20.4861 12.0005 20.4861C12.1316 20.4861 12.2615 20.4603 12.3827 20.41C12.5038 20.3598 12.6139 20.2862 12.7065 20.1934L16.9499 15.9501C16.9499 15.9501 16.9499 15.9501 16.9499 15.9501C17.9288 14.9711 18.5955 13.7238 18.8655 12.366C19.1356 11.0081 18.997 9.60068 18.4671 8.32162C17.9373 7.04256 17.0401 5.94933 15.889 5.18018C14.7378 4.41102 13.3845 4.00049 12 4.00049ZM18.3641 17.3643C19.6228 16.1056 20.4799 14.5019 20.8271 12.7561C21.1743 11.0103 20.9961 9.20074 20.3149 7.55623C19.6337 5.91172 18.4801 4.50614 17.0001 3.51723C15.5201 2.52832 13.78 2.00049 12 2.00049C10.22 2.00049 8.47995 2.52832 6.99992 3.51723C5.51989 4.50614 4.36633 5.91172 3.68513 7.55623C3.00393 9.20074 2.82567 11.0103 3.1729 12.7561C3.52013 14.5019 4.37725 16.1056 5.63588 17.3643L9.87955 21.607C10.158 21.8857 10.4886 22.1068 10.8525 22.2576C11.2165 22.4085 11.6066 22.4861 12.0005 22.4861C12.3945 22.4861 12.7845 22.4085 13.1485 22.2576C13.5123 22.1068 13.8428 21.8858 14.1211 21.6073C14.121 21.6074 14.1212 21.6072 14.1211 21.6073L18.3641 17.3643Z" fill="black"/>
<path fill-rule="evenodd" clip-rule="evenodd" d="M12 9C11.4696 9 10.9609 9.21071 10.5858 9.58579C10.2107 9.96086 10 10.4696 10 11C10 11.5304 10.2107 12.0391 10.5858 12.4142C10.9609 12.7893 11.4696 13 12 13C12.5304 13 13.0391 12.7893 13.4142 12.4142C13.7893 12.0391 14 11.5304 14 11C14 10.4696 13.7893 9.96086 13.4142 9.58579C13.0391 9.21071 12.5304 9 12 9ZM9.17157 8.17157C9.92172 7.42143 10.9391 7 12 7C13.0609 7 14.0783 7.42143 14.8284 8.17157C15.5786 8.92172 16 9.93913 16 11C16 12.0609 15.5786 13.0783 14.8284 13.8284C14.0783 14.5786 13.0609 15 12 15C10.9391 15 9.92172 14.5786 9.17157 13.8284C8.42143 13.0783 8 12.0609 8 11C8 9.93913 8.42143 8.92172 9.17157 8.17157Z" fill="black"/>
</svg>
