<svg width="24" height="25" viewBox="0 0 24 25" fill="none" xmlns="http://www.w3.org/2000/svg">
<path d="M21.9892 2.79085C21.9801 2.71903 21.9642 2.64986 21.9379 2.58496C21.9371 2.58333 21.9371 2.5811 21.9367 2.57906C21.9367 2.57865 21.9363 2.57825 21.9359 2.57784C21.907 2.50948 21.8676 2.44743 21.823 2.38985C21.812 2.37622 21.8012 2.36279 21.7896 2.34998C21.742 2.29626 21.6903 2.24662 21.6303 2.20614C21.6287 2.20492 21.6267 2.20451 21.625 2.20329C21.5671 2.16504 21.503 2.13615 21.4358 2.11336C21.4191 2.10746 21.4029 2.10238 21.3858 2.0979C21.3154 2.07878 21.243 2.06494 21.1667 2.06494H15.3333C14.8733 2.06494 14.5 2.43827 14.5 2.89827C14.5 3.35828 14.8733 3.73161 15.3333 3.73161H19.1545L14.1808 8.70536C12.8545 7.64457 11.2216 7.06494 9.5 7.06494C5.36466 7.06494 2 10.4296 2 14.5649C2 18.7003 5.36466 22.0649 9.5 22.0649C13.6353 22.0649 17 18.7003 17 14.5649C17 12.8442 16.4208 11.2117 15.3592 9.88416L20.3333 4.90999V8.73161C20.3333 9.19161 20.7067 9.56494 21.1667 9.56494C21.6267 9.56494 22 9.19161 22 8.73161V2.89827C22 2.88078 21.9959 2.8641 21.9949 2.84701C21.9937 2.82788 21.9917 2.80957 21.9892 2.79085ZM9.5 20.3983C6.28324 20.3983 3.66667 17.7817 3.66667 14.5649C3.66667 11.3482 6.28324 8.73161 9.5 8.73161C11.0574 8.73161 12.5237 9.33789 13.6262 10.4365C14.7271 11.5413 15.3333 13.0075 15.3333 14.5649C15.3333 17.7817 12.7168 20.3983 9.5 20.3983Z" fill="#DD0071"/>
</svg>
