<?xml version="1.0" encoding="utf-8"?>
<!-- Generator: Adobe Illustrator 23.0.0, SVG Export Plug-In . SVG Version: 6.00 Build 0)  -->
<svg version="1.1" id="layer_1" xmlns="http://www.w3.org/2000/svg" xmlns:xlink="http://www.w3.org/1999/xlink" x="0px" y="0px"
	 viewBox="0 0 40 40" style="enable-background:new 0 0 40 40;" xml:space="preserve">
<style type="text/css">
	.st0{fill:#FFFFFF;}
	.st1{fill:#999999;}
	.st2{fill:#E8EBEC;}
	.st3{fill:#21365F;}
	.st4{fill:#BDC3D8;}
	.st5{fill:#DEDEDE;}
	.st6{fill:#9E9E9E;}
</style>
<g>
	<g>
		<circle class="st2" cx="30.13" cy="16.06" r="5.47"/>
	</g>
	<g>
		<circle class="st2" cx="24.57" cy="29.27" r="4.69"/>
	</g>
	<g>
		<circle class="st2" cx="12.09" cy="14.89" r="7.81"/>
	</g>
	<g>
		<polygon class="st0" points="33.08,13.72 8.09,13.72 20.59,6.69 		"/>
	</g>
	<g>
		<polygon class="st5" points="33.08,13.72 23.71,13.72 20.59,6.69 		"/>
	</g>
	<g>
		<path class="st0" d="M33.08,31.68H8.09v-0.34c0-1.1,0.9-2,2-2h20.99c1.1,0,2,0.9,2,2V31.68z"/>
	</g>
	<g>
		<path class="st0" d="M31.13,29.34H10.04v-0.34c0-1.1,0.9-2,2-2h17.09c1.1,0,2,0.9,2,2V29.34z"/>
	</g>
	<g>
		<path class="st5" d="M33.08,31.68H10.83v0c0-0.65,0.52-1.17,1.17-1.17h21.09V31.68z"/>
	</g>
	<g>
		<path class="st5" d="M31.13,29.34H14.34v0c0-0.65,0.52-1.17,1.17-1.17h15.62V29.34z"/>
	</g>
	<g>
		<path class="st0" d="M29.13,16.06H12.04c-1.1,0-2-0.9-2-2v-0.34h21.09v0.34C31.13,15.16,30.24,16.06,29.13,16.06z"/>
	</g>
	<g>
		<path class="st5" d="M29.96,16.06H13.17l0,0c0-0.65,0.52-1.17,1.17-1.17h16.79v0C31.13,15.53,30.61,16.06,29.96,16.06z"/>
	</g>
	<g>
		<rect x="19.03" y="16.06" class="st0" width="3.12" height="10.93"/>
	</g>
	<g>
		<rect x="26.06" y="16.06" class="st0" width="3.12" height="10.93"/>
	</g>
	<g>
		<rect x="12" y="16.06" class="st0" width="3.12" height="10.93"/>
	</g>
	<g>
		<path class="st5" d="M22.15,26.99h-1.56v-7.81c0-0.86,0.7-1.56,1.56-1.56h0V26.99z"/>
	</g>
	<g>
		<path class="st5" d="M29.18,26.99h-1.56v-7.81c0-0.86,0.7-1.56,1.56-1.56h0V26.99z"/>
	</g>
	<g>
		<path class="st5" d="M15.12,26.99h-1.56v-7.81c0-0.86,0.7-1.56,1.56-1.56h0V26.99z"/>
	</g>
	<g>
		<path class="st6" d="M33.08,14.01H8.09c-0.13,0-0.25-0.09-0.28-0.22c-0.03-0.13,0.02-0.26,0.14-0.33l12.5-7.03
			c0.09-0.05,0.2-0.05,0.29,0l12.5,7.03c0.12,0.06,0.17,0.2,0.14,0.33C33.33,13.92,33.22,14.01,33.08,14.01z M9.21,13.42h22.75
			l-11.38-6.4L9.21,13.42z"/>
	</g>
	<g>
		<polygon class="st0" points="25.45,11.76 15.73,11.76 20.59,9.03 		"/>
	</g>
	<g>
		<polygon class="st5" points="25.45,11.76 21.59,11.76 20.59,9.03 		"/>
	</g>
	<g>
		<path class="st6" d="M25.45,12.06h-9.72c-0.13,0-0.25-0.09-0.28-0.22c-0.03-0.13,0.02-0.26,0.14-0.33l4.86-2.73
			c0.09-0.05,0.2-0.05,0.29,0l4.86,2.73c0.12,0.07,0.17,0.2,0.14,0.33C25.7,11.97,25.58,12.06,25.45,12.06z M16.85,11.47h7.48
			l-3.74-2.1L16.85,11.47z"/>
	</g>
	<g>
		<path class="st6" d="M33.08,31.97H8.09c-0.16,0-0.29-0.13-0.29-0.29v-1.56c0-0.59,0.48-1.07,1.07-1.07H32.3
			c0.59,0,1.07,0.48,1.07,1.07v1.56C33.38,31.84,33.25,31.97,33.08,31.97z M8.38,31.39h24.41v-1.27c0-0.27-0.22-0.49-0.49-0.49H8.87
			c-0.27,0-0.49,0.22-0.49,0.49V31.39z"/>
	</g>
	<g>
		<path class="st6" d="M31.13,29.63H10.04c-0.16,0-0.29-0.13-0.29-0.29v-1.56c0-0.59,0.48-1.07,1.07-1.07h19.52
			c0.59,0,1.07,0.48,1.07,1.07v1.56C31.42,29.5,31.29,29.63,31.13,29.63z M10.34,29.04h20.5v-1.27c0-0.27-0.22-0.49-0.49-0.49H10.83
			c-0.27,0-0.49,0.22-0.49,0.49V29.04z"/>
	</g>
	<g>
		<path class="st6" d="M30.35,16.35H10.83c-0.59,0-1.07-0.48-1.07-1.07v-1.56c0-0.16,0.13-0.29,0.29-0.29h21.09
			c0.16,0,0.29,0.13,0.29,0.29v1.56C31.42,15.87,30.94,16.35,30.35,16.35z M10.34,14.01v1.27c0,0.27,0.22,0.49,0.49,0.49h19.52
			c0.27,0,0.49-0.22,0.49-0.49v-1.27H10.34z"/>
	</g>
	<g>
		<path class="st6" d="M22.15,27.29h-3.12c-0.16,0-0.29-0.13-0.29-0.29V16.06c0-0.16,0.13-0.29,0.29-0.29h3.12
			c0.16,0,0.29,0.13,0.29,0.29v10.93C22.44,27.15,22.31,27.29,22.15,27.29z M19.32,26.7h2.54V16.35h-2.54V26.7z"/>
	</g>
	<g>
		<path class="st6" d="M29.18,27.29h-3.12c-0.16,0-0.29-0.13-0.29-0.29V16.06c0-0.16,0.13-0.29,0.29-0.29h3.12
			c0.16,0,0.29,0.13,0.29,0.29v10.93C29.47,27.15,29.34,27.29,29.18,27.29z M26.35,26.7h2.54V16.35h-2.54V26.7z"/>
	</g>
	<g>
		<path class="st6" d="M15.12,27.29H12c-0.16,0-0.29-0.13-0.29-0.29V16.06c0-0.16,0.13-0.29,0.29-0.29h3.12
			c0.16,0,0.29,0.13,0.29,0.29v10.93C15.41,27.15,15.28,27.29,15.12,27.29z M12.29,26.7h2.54V16.35h-2.54V26.7z"/>
	</g>
	<g>
		<path class="st6" d="M33.08,18.6h-1.56c-0.16,0-0.29-0.13-0.29-0.29s0.13-0.29,0.29-0.29h1.56c0.16,0,0.29,0.13,0.29,0.29
			S33.25,18.6,33.08,18.6z"/>
	</g>
	<g>
		<path class="st6" d="M32.3,19.38c-0.16,0-0.29-0.13-0.29-0.29v-1.56c0-0.16,0.13-0.29,0.29-0.29c0.16,0,0.29,0.13,0.29,0.29v1.56
			C32.6,19.25,32.46,19.38,32.3,19.38z"/>
	</g>
	<g>
		<path class="st6" d="M27.23,7.76h-1.56c-0.16,0-0.29-0.13-0.29-0.29c0-0.16,0.13-0.29,0.29-0.29h1.56c0.16,0,0.29,0.13,0.29,0.29
			C27.52,7.63,27.39,7.76,27.23,7.76z"/>
	</g>
	<g>
		<path class="st6" d="M26.44,8.54c-0.16,0-0.29-0.13-0.29-0.29V6.69c0-0.16,0.13-0.29,0.29-0.29c0.16,0,0.29,0.13,0.29,0.29v1.56
			C26.74,8.41,26.61,8.54,26.44,8.54z"/>
	</g>
	<g>
		<path class="st6" d="M10.43,20.55H8.87c-0.16,0-0.29-0.13-0.29-0.29c0-0.16,0.13-0.29,0.29-0.29h1.56c0.16,0,0.29,0.13,0.29,0.29
			C10.73,20.42,10.59,20.55,10.43,20.55z"/>
	</g>
	<g>
		<path class="st6" d="M9.65,21.33c-0.16,0-0.29-0.13-0.29-0.29v-1.56c0-0.16,0.13-0.29,0.29-0.29s0.29,0.13,0.29,0.29v1.56
			C9.94,21.2,9.81,21.33,9.65,21.33z"/>
	</g>
	<g>
		<path class="st6" d="M13.17,9.23H11.6c-0.16,0-0.29-0.13-0.29-0.29c0-0.16,0.13-0.29,0.29-0.29h1.56c0.16,0,0.29,0.13,0.29,0.29
			C13.46,9.09,13.33,9.23,13.17,9.23z"/>
	</g>
	<g>
		<path class="st6" d="M12.39,10.01c-0.16,0-0.29-0.13-0.29-0.29V8.15c0-0.16,0.13-0.29,0.29-0.29c0.16,0,0.29,0.13,0.29,0.29v1.56
			C12.68,9.88,12.55,10.01,12.39,10.01z"/>
	</g>
	<g>
		<path class="st6" d="M32.3,24.07h-1.56c-0.16,0-0.29-0.13-0.29-0.29c0-0.16,0.13-0.29,0.29-0.29h1.56c0.16,0,0.29,0.13,0.29,0.29
			C32.6,23.93,32.46,24.07,32.3,24.07z"/>
	</g>
	<g>
		<path class="st6" d="M31.52,24.85c-0.16,0-0.29-0.13-0.29-0.29v-1.56c0-0.16,0.13-0.29,0.29-0.29c0.16,0,0.29,0.13,0.29,0.29v1.56
			C31.81,24.72,31.68,24.85,31.52,24.85z"/>
	</g>
</g>
</svg>
