<svg width="213" height="178" viewBox="0 0 213 178" fill="none" xmlns="http://www.w3.org/2000/svg">
<path d="M97 178C146.153 178 186 138.153 186 89C186 39.8467 146.153 0 97 0C47.8467 0 8 39.8467 8 89C8 138.153 47.8467 178 97 178Z" fill="#F4F4F4"/>
<path d="M13 158C17.9706 158 22 153.971 22 149C22 144.029 17.9706 140 13 140C8.02944 140 4 144.029 4 149C4 153.971 8.02944 158 13 158Z" fill="#F4F4F4"/>
<path d="M198.5 46C202.09 46 205 43.0898 205 39.5C205 35.9101 202.09 33 198.5 33C194.91 33 192 35.9101 192 39.5C192 43.0898 194.91 46 198.5 46Z" fill="#F4F4F4"/>
<path d="M208.5 18C210.985 18 213 15.9853 213 13.5C213 11.0147 210.985 9 208.5 9C206.015 9 204 11.0147 204 13.5C204 15.9853 206.015 18 208.5 18Z" fill="#F4F4F4"/>
<path d="M4.5 52C6.98528 52 9 49.9853 9 47.5C9 45.0147 6.98528 43 4.5 43C2.01472 43 0 45.0147 0 47.5C0 49.9853 2.01472 52 4.5 52Z" fill="#F4F4F4"/>
<path d="M69.32 137H122.68C127.83 137 132 132.851 132 127.727V49.2732C132 44.149 127.83 40 122.68 40H86.61L60 66.6156V127.727C60 132.841 64.17 137 69.32 137Z" fill="white"/>
<path d="M132 94.246V49.2732C132 44.149 127.829 40 122.679 40H86.6137L60 66.6156V127.727C60 132.851 64.1706 137 69.3213 137H122.689" stroke="#A8A8A8" stroke-width="4" stroke-miterlimit="10" stroke-linecap="round"/>
<path d="M150.971 140.78L141.214 130.942L141 127.087L142.978 125.093L146.954 125L156.792 134.921C158.403 136.545 158.403 139.166 156.792 140.791C155.181 142.405 152.571 142.405 150.971 140.78Z" fill="#A8A8A8"/>
<path d="M143.243 126.243L139 122L136.874 124.116L141.116 128.359L143.243 126.243Z" fill="#A8A8A8"/>
<path d="M61 68H83.3811C85.385 68 87 66.375 87 64.3811V42" stroke="#A8A8A8" stroke-width="4" stroke-miterlimit="10" stroke-linecap="round"/>
<path opacity="0.5" d="M125 131C133.837 131 141 123.837 141 115C141 106.163 133.837 99 125 99C116.163 99 109 106.163 109 115C109 123.837 116.163 131 125 131Z" fill="white"/>
<path d="M125 131C133.837 131 141 123.837 141 115C141 106.163 133.837 99 125 99C116.163 99 109 106.163 109 115C109 123.837 116.163 131 125 131Z" stroke="#F54A00" stroke-width="4" stroke-miterlimit="10"/>
<path d="M71 79H116" stroke="#E0E0E0" stroke-width="4" stroke-miterlimit="10" stroke-linecap="round"/>
<path d="M71 90H116" stroke="#E0E0E0" stroke-width="4" stroke-miterlimit="10" stroke-linecap="round"/>
<path d="M71 101H105" stroke="#E0E0E0" stroke-width="4" stroke-miterlimit="10" stroke-linecap="round"/>
<path d="M71 113H98" stroke="#E0E0E0" stroke-width="4" stroke-miterlimit="10" stroke-linecap="round"/>
<path d="M71 124H102" stroke="#E0E0E0" stroke-width="4" stroke-miterlimit="10" stroke-linecap="round"/>
<path d="M129 114.573C129 115.523 128.941 116.337 128.823 117.016C128.705 117.694 128.489 118.315 128.175 118.867C127.772 119.546 127.261 120.069 126.632 120.447C126.003 120.816 125.296 121 124.52 121C123.626 121 122.83 120.748 122.122 120.254C121.415 119.759 120.884 119.071 120.531 118.189C120.354 117.714 120.216 117.18 120.128 116.599C120.039 116.017 120 115.387 120 114.718C120 113.846 120.049 113.06 120.138 112.362C120.226 111.664 120.373 111.063 120.58 110.559C120.924 109.726 121.425 109.095 122.083 108.659C122.741 108.223 123.527 108 124.441 108C125.04 108 125.591 108.097 126.082 108.291C126.573 108.485 127.005 108.766 127.379 109.144C127.752 109.512 128.067 109.978 128.322 110.53C128.784 111.48 129 112.828 129 114.573ZM126.593 114.398C126.593 113.342 126.524 112.479 126.396 111.8C126.269 111.122 126.052 110.617 125.748 110.278C125.443 109.939 125.021 109.764 124.48 109.764C123.704 109.764 123.174 110.152 122.869 110.918C122.564 111.684 122.417 112.867 122.417 114.466C122.417 115.552 122.486 116.444 122.614 117.132C122.741 117.83 122.957 118.353 123.262 118.702C123.567 119.061 123.979 119.236 124.5 119.236C125.04 119.236 125.463 119.051 125.767 118.683C126.072 118.315 126.288 117.782 126.406 117.093C126.524 116.405 126.593 115.513 126.593 114.398Z" fill="#A8A8A8"/>
</svg>
