<svg width="24" height="24" viewBox="0 0 24 24" fill="none" xmlns="http://www.w3.org/2000/svg">
<path fill-rule="evenodd" clip-rule="evenodd" d="M12.2 5C12.4122 5 12.6157 5.08429 12.7657 5.23431C12.9157 5.38434 13 5.58783 13 5.8V12.2C13 12.4122 12.9157 12.6157 12.7657 12.7657C12.6157 12.9157 12.4122 13 12.2 13H5.8C5.58783 13 5.38434 12.9157 5.23431 12.7657C5.08429 12.6157 5 12.4122 5 12.2C5 11.9878 5.08429 11.7843 5.23431 11.6343C5.38434 11.4843 5.58783 11.4 5.8 11.4H11.4V5.8C11.4 5.58783 11.4843 5.38434 11.6343 5.23431C11.7843 5.08429 11.9878 5 12.2 5Z" fill="#141CCC"/>
<path fill-rule="evenodd" clip-rule="evenodd" d="M11 11.8C11 11.5878 11.0843 11.3843 11.2343 11.2343C11.3843 11.0843 11.5878 11 11.8 11H18.2C18.4122 11 18.6157 11.0843 18.7657 11.2343C18.9157 11.3843 19 11.5878 19 11.8C19 12.0122 18.9157 12.2157 18.7657 12.3657C18.6157 12.5157 18.4122 12.6 18.2 12.6H12.6V18.2C12.6 18.4122 12.5157 18.6157 12.3657 18.7657C12.2157 18.9157 12.0122 19 11.8 19C11.5878 19 11.3843 18.9157 11.2343 18.7657C11.0843 18.6157 11 18.4122 11 18.2V11.8Z" fill="#141CCC"/>
</svg>
