<svg width="19" height="13" viewBox="0 0 19 13" fill="none" xmlns="http://www.w3.org/2000/svg">
<path d="M14.626 13C13.0827 13 11.9646 12.4544 11.2717 11.3633C10.9567 10.8957 10.7047 10.3189 10.5157 9.63309C10.3268 8.94724 10.2323 8.23022 10.2323 7.48202C10.2323 5.86091 10.6417 4.39569 11.4606 3.08633C12.311 1.77698 13.5551 0.748203 15.1929 0L15.6181 0.841729C14.7047 1.21583 13.9016 1.79257 13.2087 2.57194C12.5472 3.35132 12.1535 4.14628 12.0276 4.95684C11.9331 5.33094 11.8858 5.68945 11.8858 6.03237C11.8858 6.34413 11.9331 6.64029 12.0276 6.92086C12.7205 6.17266 13.6339 5.79856 14.7677 5.79856C15.8701 5.79856 16.7677 6.1259 17.4606 6.78058C18.1535 7.40408 18.5 8.27698 18.5 9.39928C18.5 10.4592 18.1378 11.3321 17.4134 12.018C16.689 12.6727 15.7598 13 14.626 13ZM4.8937 13C3.35039 13 2.23228 12.4544 1.53937 11.3633C1.22441 10.8957 0.972441 10.3189 0.783464 9.63309C0.594488 8.94724 0.5 8.23022 0.5 7.48202C0.5 5.86091 0.909449 4.39569 1.72835 3.08633C2.57874 1.77698 3.82283 0.748203 5.46063 0L5.88583 0.841729C4.97244 1.21583 4.16929 1.79257 3.47638 2.57194C2.81496 3.35132 2.42126 4.14628 2.29528 4.95684C2.20079 5.33094 2.15354 5.68945 2.15354 6.03237C2.15354 6.34413 2.20079 6.64029 2.29528 6.92086C2.98819 6.17266 3.90157 5.79856 5.03543 5.79856C6.13779 5.79856 7.03543 6.1259 7.72835 6.78058C8.42126 7.40408 8.76772 8.27698 8.76772 9.39928C8.76772 10.4592 8.40551 11.3321 7.6811 12.018C6.95669 12.6727 6.02756 13 4.8937 13Z" fill="#F54A00"/>
</svg>
