<svg width="32" height="32" viewBox="0 0 32 32" fill="none" xmlns="http://www.w3.org/2000/svg">
<circle cx="16" cy="16" r="16" fill="#446DFD"/>
<g clip-path="url(#clip0_10495_57356)">
<path d="M11.5355 7.46447L8 11L8.71585 11.6983L12.2514 8.16272L11.5355 7.46447Z" fill="white"/>
<path d="M20.7071 8.29289L20 9L23.5793 12.4913L24.2864 11.7841L20.7071 8.29289Z" fill="white"/>
<path d="M21.037 20.544C21.9909 19.5819 22.6329 18.3678 22.883 17.053C23.1331 15.7382 22.9802 14.3808 22.4434 13.15C21.9065 11.9192 21.0095 10.8694 19.864 10.1315C18.7185 9.3935 17.3753 9 16.0017 9C14.6282 9 13.2849 9.3935 12.1395 10.1315C10.994 10.8694 10.097 11.9192 9.56014 13.15C9.02329 14.3808 8.87038 15.7382 9.12046 17.053C9.37055 18.3678 10.0126 19.5819 10.9665 20.544L9.13997 22.91C9.08482 22.9816 9.0447 23.063 9.02189 23.1497C8.99909 23.2363 8.99404 23.3265 9.00703 23.4151C9.02003 23.5036 9.05082 23.5889 9.09764 23.6658C9.14447 23.7428 9.20641 23.8101 9.27993 23.8637C9.35345 23.9174 9.43711 23.9565 9.52614 23.9787C9.61517 24.0009 9.70782 24.0058 9.7988 23.9932C9.88977 23.9805 9.9773 23.9505 10.0564 23.9049C10.1355 23.8594 10.2045 23.7991 10.2597 23.7275L12.0295 21.4296C13.1953 22.2161 14.5799 22.6375 15.9982 22.6375C17.4166 22.6375 18.8012 22.2161 19.967 21.4296L21.7368 23.7275C21.792 23.7991 21.861 23.8594 21.9401 23.9049C22.0192 23.9505 22.1067 23.9805 22.1977 23.9932C22.2887 24.0058 22.3813 24.0009 22.4704 23.9787C22.5594 23.9565 22.643 23.9174 22.7166 23.8637C22.7901 23.8101 22.852 23.7428 22.8989 23.6658C22.9457 23.5889 22.9765 23.5036 22.9895 23.4151C23.0025 23.3265 22.9974 23.2363 22.9746 23.1497C22.9518 23.063 22.9117 22.9816 22.8565 22.91L21.037 20.544ZM20.1972 16.5061H15.2984V11.7373H16.6981V15.1436H20.1972V16.5061Z" fill="white"/>
</g>
<defs>
<clipPath id="clip0_10495_57356">
<rect width="16" height="16" fill="white" transform="translate(8 8)"/>
</clipPath>
</defs>
</svg>
