<svg width="48" height="48" viewBox="0 0 48 48" fill="none" xmlns="http://www.w3.org/2000/svg">
<circle cx="24" cy="24" r="23.5" stroke="#A8A8A8"/>
<path fill-rule="evenodd" clip-rule="evenodd" d="M19.2308 14.226C19.3037 14.1543 19.3904 14.0975 19.4859 14.0587C19.5813 14.02 19.6836 14 19.7869 14C19.8902 14 19.9925 14.02 20.088 14.0587C20.1834 14.0975 20.2701 14.1543 20.3431 14.226L29.7692 23.4556C29.8424 23.5271 29.9004 23.612 29.94 23.7054C29.9796 23.7989 30 23.899 30 24.0002C30 24.1014 29.9796 24.2015 29.94 24.295C29.9004 24.3884 29.8424 24.4733 29.7692 24.5448L20.3431 33.7744C20.1956 33.9189 19.9955 34 19.7869 34C19.5783 34 19.3783 33.9189 19.2308 33.7744C19.0833 33.63 19.0004 33.4341 19.0004 33.2299C19.0004 33.0256 19.0833 32.8298 19.2308 32.6853L28.1024 24.0002L19.2308 15.3151C19.1576 15.2436 19.0996 15.1587 19.06 15.0653C19.0204 14.9719 19 14.8717 19 14.7705C19 14.6693 19.0204 14.5692 19.06 14.4757C19.0996 14.3823 19.1576 14.2974 19.2308 14.226V14.226Z" fill="#8D8D8D"/>
</svg>
