<svg width="48" height="48" viewBox="0 0 48 48" fill="none" xmlns="http://www.w3.org/2000/svg">
<circle cx="24" cy="24" r="23.5" stroke="#A8A8A8"/>
<path fill-rule="evenodd" clip-rule="evenodd" d="M29.7692 14.226C29.8424 14.2974 29.9004 14.3823 29.94 14.4757C29.9796 14.5692 30 14.6693 30 14.7705C30 14.8717 29.9796 14.9719 29.94 15.0653C29.9004 15.1587 29.8424 15.2436 29.7692 15.3151L20.8976 24.0002L29.7692 32.6853C29.9167 32.8298 29.9996 33.0256 29.9996 33.2299C29.9996 33.4341 29.9167 33.63 29.7692 33.7744C29.6217 33.9189 29.4217 34 29.2131 34C29.0045 34 28.8044 33.9189 28.6569 33.7744L19.2308 24.5448C19.1576 24.4733 19.0996 24.3884 19.06 24.295C19.0204 24.2015 19 24.1014 19 24.0002C19 23.899 19.0204 23.7989 19.06 23.7054C19.0996 23.612 19.1576 23.5271 19.2308 23.4556L28.6569 14.226C28.7299 14.1543 28.8166 14.0975 28.912 14.0587C29.0075 14.02 29.1098 14 29.2131 14C29.3164 14 29.4187 14.02 29.5141 14.0587C29.6096 14.0975 29.6963 14.1543 29.7692 14.226V14.226Z" fill="#8D8D8D"/>
</svg>
