<svg width="24" height="24" viewBox="0 0 24 24" fill="none" xmlns="http://www.w3.org/2000/svg">
<path d="M22.0652 4.36454V11.0697C22.0652 17.1761 17.9184 22.5006 11.9951 24C6.08168 22.5056 1.93488 17.1761 1.93488 11.0697V4.36454C6.59137 3.84 9.2289 2.06845 12 0C14.7712 2.06845 17.4087 3.84 22.0652 4.36454Z" fill="#FFD15C"/>
<path d="M12 21.3524C7.54143 19.9371 4.47833 15.8002 4.47833 11.0695V6.52683C7.6107 5.84394 9.91173 4.58209 12 3.14209C14.1328 4.62168 16.3893 5.85879 19.5216 6.53178V11.0745C19.5216 15.8002 16.4585 19.9371 12 21.3524Z" fill="#F8B64C"/>
<path d="M10.3324 16.1022L7.85321 13.623L9.11012 12.3611L10.3324 13.5785L14.8899 9.02588L16.1468 10.2828L10.3324 16.1022Z" fill="white"/>
</svg>
