<svg width="20" height="21" viewBox="0 0 20 21" fill="none" xmlns="http://www.w3.org/2000/svg">
<path fill-rule="evenodd" clip-rule="evenodd" d="M2.166 5.49885C5.06114 5.46285 7.84481 4.37731 10 2.44385C12.155 4.37767 14.9387 5.46357 17.834 5.49985C17.944 6.14985 18 6.81985 18 7.50085C18 12.7258 14.66 17.1708 10 18.8178C5.34 17.1698 2 12.7248 2 7.49985C2 6.81785 2.057 6.14985 2.166 5.49885ZM13.707 9.20685C13.8892 9.01825 13.99 8.76564 13.9877 8.50345C13.9854 8.24125 13.8802 7.99044 13.6948 7.80503C13.5094 7.61962 13.2586 7.51445 12.9964 7.51217C12.7342 7.5099 12.4816 7.61069 12.293 7.79285L9 11.0858L7.707 9.79285C7.5184 9.61069 7.2658 9.5099 7.0036 9.51217C6.7414 9.51445 6.49059 9.61962 6.30518 9.80503C6.11977 9.99044 6.0146 10.2413 6.01233 10.5034C6.01005 10.7656 6.11084 11.0182 6.293 11.2068L8.293 13.2068C8.48053 13.3943 8.73484 13.4996 9 13.4996C9.26516 13.4996 9.51947 13.3943 9.707 13.2068L13.707 9.20685Z" fill="#5BC5F2"/>
</svg>
