<svg width="32" height="32" viewBox="0 0 32 32" fill="none" xmlns="http://www.w3.org/2000/svg">
<circle cx="16" cy="16" r="16" fill="#81D230"/>
<path d="M14.5 24C10.9159 24 8 21.0841 8 17.5C8 13.9159 10.9159 11 14.5 11C14.7437 11 14.9849 11.0136 15.2208 11.0396L15.8669 11.1105L15.7246 12.4027L15.0785 12.3318C14.8887 12.311 14.6956 12.3 14.5 12.3C11.6329 12.3 9.3 14.6329 9.3 17.5C9.3 20.3671 11.6329 22.7 14.5 22.7C17.3671 22.7 19.7 20.3671 19.7 17.5C19.7 17.3043 19.6889 17.1106 19.6681 16.9208L19.5973 16.2747L20.8895 16.1324L20.9603 16.7785C20.9863 17.0158 21 17.2562 21 17.5C21 21.0841 18.0841 24 14.5 24Z" fill="white"/>
<path d="M15 21C12.794 21 11 19.206 11 17C11 14.794 12.794 13 15 13C17.206 13 19 14.794 19 17C19 19.206 17.206 21 15 21ZM15 14.3333C13.5293 14.3333 12.3333 15.5293 12.3333 17C12.3333 18.4707 13.5293 19.6667 15 19.6667C16.4707 19.6667 17.6667 18.4707 17.6667 17C17.6667 15.5293 16.4707 14.3333 15 14.3333Z" fill="white"/>
<path d="M20.821 14.9368L24 11.7571L21.9181 11.0632L23.2061 9.77516L22.2248 8.79389L20.9368 10.0819L20.2429 8L17.0638 11.179L17.7578 13.2616L14.7432 16.2762C14.6287 16.2457 14.5115 16.2241 14.3879 16.2241C13.6211 16.2241 13 16.8452 13 17.6121C13 18.3789 13.6211 19 14.3879 19C15.1548 19 15.7759 18.3789 15.7759 17.6121C15.7759 17.4885 15.7543 17.3713 15.7245 17.2568L18.7391 14.2422L20.821 14.9368Z" fill="white"/>
</svg>
