<svg width="21" height="21" viewBox="0 0 21 21" fill="none" xmlns="http://www.w3.org/2000/svg">
<path fill-rule="evenodd" clip-rule="evenodd" d="M11.4861 3.28731C10.7437 2.80701 9.84076 2.64133 8.97611 2.82672C8.11145 3.01212 7.35586 3.53341 6.87555 4.27591C6.39524 5.01841 6.22956 5.9213 6.41496 6.78595C6.5108 7.23296 6.22863 7.67372 5.78255 7.77379C5.18186 7.90854 4.65201 8.26018 4.29451 8.76136C3.93701 9.26253 3.77699 9.87799 3.84512 10.4898C3.91325 11.1017 4.20473 11.6669 4.66372 12.0771C5.12271 12.4874 5.71693 12.7138 6.33255 12.7132C6.79279 12.7126 7.1663 13.0853 7.16681 13.5456C7.16732 14.0058 6.79464 14.3793 6.33441 14.3798C5.30838 14.381 4.31801 14.0035 3.55302 13.3197C2.78804 12.636 2.30224 11.694 2.18869 10.6743C2.07514 9.65455 2.34183 8.62878 2.93767 7.79349C3.38272 7.16958 3.98804 6.68471 4.6831 6.38567C4.61982 5.32838 4.89379 4.27092 5.47615 3.37066C6.19655 2.25702 7.32983 1.47517 8.62669 1.1971C9.92354 0.919028 11.2778 1.16752 12.3914 1.88792C13.321 2.48926 14.0194 3.37831 14.3866 4.41004C15.4251 4.52472 16.4067 4.96271 17.189 5.6692C18.1092 6.50029 18.6877 7.64366 18.8124 8.87733C18.937 10.111 18.5987 11.347 17.8633 12.3453C17.1279 13.3436 16.0478 14.0331 14.8326 14.2798C14.3816 14.3714 13.9417 14.08 13.8501 13.629C13.7586 13.178 14.05 12.7381 14.501 12.6465C15.3111 12.482 16.0312 12.0224 16.5214 11.3568C17.0117 10.6913 17.2372 9.86728 17.1541 9.04483C17.071 8.22238 16.6853 7.46014 16.0719 6.90608C15.4584 6.35201 14.661 6.04566 13.8343 6.04649L13.7501 6.04649C13.3572 6.04649 13.0177 5.77205 12.9353 5.38787C12.7499 4.52322 12.2286 3.76762 11.4861 3.28731ZM13.8331 4.37983H13.7501V5.21316L13.8335 5.1953L13.8335 5.21316M9.91089 7.95724C10.2363 7.6318 10.764 7.6318 11.0894 7.95724L13.5894 10.4572C13.9148 10.7827 13.9148 11.3103 13.5894 11.6358C13.264 11.9612 12.7363 11.9612 12.4109 11.6358L11.3335 10.5583V18.5465C11.3335 19.0067 10.9604 19.3798 10.5001 19.3798C10.0399 19.3798 9.66681 19.0067 9.66681 18.5465V10.5583L8.5894 11.6358C8.26396 11.9612 7.73633 11.9612 7.41089 11.6358C7.08545 11.3103 7.08545 10.7827 7.41089 10.4572L9.91089 7.95724Z" fill="#111111"/>
</svg>
