<svg width="11" height="11" viewBox="0 0 11 11" fill="none" xmlns="http://www.w3.org/2000/svg">
<ellipse cx="5.49935" cy="5.68924" rx="4.58333" ry="4.65603" fill="#D1D1D1"/>
<path d="M5.5 0C4.4122 0 3.34884 0.322569 2.44437 0.926917C1.5399 1.53126 0.834947 2.39025 0.418665 3.39524C0.00238307 4.40023 -0.106535 5.5061 0.105683 6.573C0.317902 7.63989 0.841726 8.6199 1.61091 9.38909C2.3801 10.1583 3.36011 10.6821 4.427 10.8943C5.4939 11.1065 6.59977 10.9976 7.60476 10.5813C8.60975 10.1651 9.46873 9.46011 10.0731 8.55564C10.6774 7.65117 11 6.5878 11 5.5C10.9958 4.04261 10.4149 2.64612 9.38441 1.61559C8.35388 0.585054 6.95739 0.00423223 5.5 0V0ZM4.58333 7.98142L2.10192 5.5L2.75 4.85192L4.58333 6.68525L8.25 3.01858L8.89808 3.66667L4.58333 7.98142Z" fill="#F54A00"/>
</svg>
