<svg width="21" height="139" viewBox="0 0 21 139" fill="none" xmlns="http://www.w3.org/2000/svg">
<path d="M16.4723 0C16.4723 12.6043 9.49815 22.8288 0 22.8288V29.8802H1.32841C2.98893 29.8802 4.31734 31.643 4.31734 33.8465C4.31734 36.0501 2.98893 37.8129 1.32841 37.8129H0V44.7762H1.32841C2.98893 44.7762 4.31734 46.539 4.31734 48.7425C4.31734 50.9461 2.98893 52.7089 1.32841 52.7089H0V60.4654C3.78598 60.4654 6.84133 64.52 6.84133 69.5441C6.84133 74.5682 3.78598 78.6227 0 78.6227V86.5555H1.32841C2.98893 86.5555 4.31734 88.3183 4.31734 90.5219C4.31734 92.7254 2.98893 94.4883 1.32841 94.4883H0V101.451H1.32841C2.98893 101.451 4.31734 103.214 4.31734 105.418C4.31734 107.621 2.98893 109.384 1.32841 109.384H0V116.259C9.49815 116.259 16.4723 126.484 16.4723 139.088H21V0H16.4723Z" fill="#141ED2"/>
</svg>
