<svg width="21" height="139" viewBox="0 0 21 139" fill="none" xmlns="http://www.w3.org/2000/svg">
<path d="M4.52768 139C4.52768 126.396 11.5018 116.171 21 116.171L21 109.12L19.6716 109.12C18.0111 109.12 16.6827 107.357 16.6827 105.153C16.6827 102.95 18.0111 101.187 19.6716 101.187L21 101.187L21 94.2238L19.6716 94.2238C18.0111 94.2238 16.6827 92.461 16.6827 90.2574C16.6827 88.0539 18.0111 86.2911 19.6716 86.2911L21 86.2911L21 78.5346C17.214 78.5346 14.1587 74.48 14.1587 69.4559C14.1587 64.4318 17.214 60.3773 21 60.3773L21 52.4445L19.6716 52.4445C18.0111 52.4445 16.6827 50.6817 16.6827 48.4781C16.6827 46.2746 18.0111 44.5117 19.6716 44.5117L21 44.5117L21 37.5485L19.6716 37.5485C18.0111 37.5485 16.6827 35.7857 16.6827 33.5821C16.6827 31.3786 18.0111 29.6157 19.6716 29.6157L21 29.6157L21 22.7406C11.5019 22.7406 4.52769 12.5162 4.52769 -0.0881515L1.21595e-05 -0.0881519L0 139L4.52768 139Z" fill="#F0F3FA"/>
</svg>
