<svg width="24" height="24" viewBox="0 0 24 24" fill="none" xmlns="http://www.w3.org/2000/svg">
<path d="M10.6398 1.01666L1.25592 10.4005C0.524719 11.1318 0.524719 12.3173 1.25592 13.0485L6.828 18.6207C7.55925 19.3519 8.74477 19.3519 9.47602 18.6207L18.8599 9.2368C19.5911 8.50556 19.5911 7.32004 18.8599 6.58879L13.2878 1.01666C12.5565 0.285461 11.371 0.285461 10.6398 1.01666Z" fill="#79B2FF"/>
<path d="M14.9072 2.85763L3.4143 9.49297C2.51875 10.0101 2.21191 11.1552 2.72894 12.0508L6.66901 18.8752C7.18609 19.7707 8.3312 20.0776 9.2268 19.5606L20.7196 12.9252C21.6152 12.4081 21.922 11.263 21.405 10.3674L17.4649 3.54294C16.9479 2.6474 15.8027 2.34055 14.9072 2.85763Z" fill="#F5737F"/>
<path d="M19.4062 23.5308H2.71875C1.47609 23.5308 0.46875 22.5234 0.46875 21.2808V9.65576C0.46875 8.41311 1.47609 7.40576 2.71875 7.40576H19.4062C20.6489 7.40576 21.6562 8.41311 21.6562 9.65576V21.2808C21.6562 22.5234 20.6489 23.5308 19.4062 23.5308Z" fill="#C68A65"/>
<path d="M22.5938 17.5308H17.7188C16.5796 17.5308 15.6562 16.6074 15.6562 15.4683C15.6562 14.3292 16.5796 13.4058 17.7188 13.4058H22.5938C23.1115 13.4058 23.5312 13.8255 23.5312 14.3433V16.5933C23.5312 17.111 23.1115 17.5308 22.5938 17.5308Z" fill="#DCA98B"/>
<path d="M22.5938 12.9369H22.125V9.65568C22.125 8.36212 21.2167 7.27743 20.0045 7.00406L17.871 3.30871C17.5583 2.76717 17.0535 2.37975 16.4494 2.21789C16.0229 2.10365 15.5831 2.11204 15.1707 2.23654L13.6193 0.685121C12.7064 -0.227676 11.2212 -0.22777 10.3083 0.685121L4.05661 6.93693H2.71875C1.21964 6.93693 0 8.15657 0 9.65568V21.2807C0 22.7798 1.21964 23.9994 2.71875 23.9994H8.95312C9.21197 23.9994 9.42188 23.7895 9.42188 23.5307C9.42188 23.2718 9.21197 23.0619 8.95312 23.0619H2.71875C1.73658 23.0619 0.9375 22.2629 0.9375 21.2807V9.65568C0.9375 8.67351 1.73658 7.87443 2.71875 7.87443H19.4062C20.3884 7.87443 21.1875 8.67351 21.1875 9.65568V12.9369H17.7188C16.323 12.9369 15.1875 14.0725 15.1875 15.4682C15.1875 16.8639 16.323 17.9994 17.7188 17.9994H21.1875V21.2807C21.1875 22.2629 20.3884 23.0619 19.4062 23.0619H13.1719C12.913 23.0619 12.7031 23.2718 12.7031 23.5307C12.7031 23.7895 12.913 23.9994 13.1719 23.9994H19.4062C20.9054 23.9994 22.125 22.7798 22.125 21.2807V17.9994H22.5938C23.3692 17.9994 24 17.3686 24 16.5932V14.3432C24 13.5678 23.3692 12.9369 22.5938 12.9369ZM16.2067 3.12347C16.5689 3.2205 16.8716 3.45276 17.0591 3.77746L18.8832 6.93693H8.77936L15.1416 3.26367C15.4663 3.07626 15.8445 3.02639 16.2067 3.12347ZM10.9713 1.34807C11.2364 1.08295 11.5889 0.936934 11.9638 0.936934C12.3388 0.936934 12.6913 1.08295 12.9564 1.34807L14.2844 2.67609L6.90441 6.93693H5.38247L10.9713 1.34807ZM23.0625 16.5932C23.0625 16.8517 22.8522 17.0619 22.5938 17.0619H17.7188C16.8399 17.0619 16.125 16.347 16.125 15.4682C16.125 14.5894 16.8399 13.8744 17.7188 13.8744H22.5938C22.8522 13.8744 23.0625 14.0847 23.0625 14.3432V16.5932Z" fill="black"/>
<path d="M17.6404 14.9995C17.5171 14.9995 17.3962 15.0496 17.309 15.1369C17.2218 15.2241 17.1716 15.3445 17.1716 15.4683C17.1716 15.5915 17.2217 15.7125 17.309 15.7996C17.3962 15.8868 17.5171 15.937 17.6404 15.937C17.7641 15.937 17.8846 15.8869 17.9717 15.7996C18.0594 15.7125 18.1091 15.5915 18.1091 15.4683C18.1091 15.345 18.0594 15.224 17.9717 15.1369C17.8846 15.0497 17.7641 14.9995 17.6404 14.9995Z" fill="black"/>
<path d="M11.0625 23.062C10.9392 23.062 10.8183 23.1121 10.7311 23.1994C10.6439 23.2866 10.5938 23.4075 10.5938 23.5308C10.5938 23.654 10.6439 23.775 10.7311 23.8621C10.8183 23.9493 10.9392 23.9995 11.0625 23.9995C11.1858 23.9995 11.3067 23.9494 11.3939 23.8621C11.481 23.775 11.5312 23.654 11.5312 23.5308C11.5312 23.4075 11.4811 23.2865 11.3939 23.1994C11.3067 23.1122 11.1858 23.062 11.0625 23.062Z" fill="black"/>
</svg>
